<svg xmlns="http://www.w3.org/2000/svg" width="1023" height="222" viewBox="0 0 10230 2220"><g fill="#d71920"><path d="M0 2081v-139l16-6 16-6h3703l23 6 22 6v98l-51 90-50 90H0v-139zm3920 112v-26l29-46c15-25 46-80 68-121s85-156 138-255c278-511 345-637 345-645s-268-508-365-680c-23-41-63-115-90-165-26-49-63-115-81-146l-34-57V0h630l20 38c65 120 99 181 167 305l76 138 10-4c11-3 50-71 151-262 32-60 72-134 88-163l30-52h638v39l-44 73c-35 59-244 441-409 748-16 30-52 94-78 141-27 48-49 93-49 100 0 8 10 30 21 49 21 35 219 395 296 540 92 173 228 417 250 450l23 35v45h-636l-89-162c-49-90-112-205-139-256l-50-92-12 12c-11 12-56 92-169 303-57 108-87 158-103 178l-15 17h-617v-27zm2030-35c-18-35-41-75-52-90l-18-26v-100l23-6 22-6h4273l16 6 16 6v278H5983l-33-62zM0 905V0h539l28 35 28 35 75 147c42 82 145 282 230 446l155 298 18-22c10-12 68-122 129-243 61-122 125-248 143-281s67-127 110-210c43-82 87-162 99-177l21-27h281l282-1 6 16 6 16v1754l-12 12-12 12h-464l-16-6-16-6V916l-19 19c-16 17-181 303-305 527-21 37-50 81-66 98l-28 30H914l-26-27-26-28-114-195c-63-107-134-230-159-273-76-135-84-147-91-147h-8v869l-19 11-20 10H0V905z"/><path d="M2167 1803c-4-3-7-23-7-42v-36l19-36c10-19 24-51 30-70 5-19 19-59 30-89 37-104 153-435 167-475 7-22 41-119 74-215 34-96 70-200 80-230s46-134 80-230 68-194 75-216c19-60 43-105 73-136l26-28h678l28 30 28 30 25 68c14 37 44 121 67 187s68 194 100 285 79 226 104 300 57 167 71 205c15 39 30 84 35 100 4 17 25 75 45 130l38 100 4 62 5 63-35 57c-19 32-45 78-57 103s-32 55-43 68l-20 22h-287l-20-32c-11-18-22-46-26-63-11-52-74-237-85-252l-11-13h-608l-20 20-20 20v18c0 9-16 62-35 117s-35 110-35 123v22l-20 20-20 20h-527l-6-7zm1178-743l6-9-14-28c-15-30-55-165-125-418l-19-69-15-10-15-9-27 7-27 7-3 12c-2 7-16 59-31 117-30 114-49 180-89 307-14 45-26 87-26 93v10h379l6-10zm2482 743l-7-6V277l41-76c23-42 57-104 77-138l36-63h386v1786l-12 12-12 12h-503l-6-7zm1328-2l-70-9-48-16c-26-9-52-16-58-16-5 0-42-15-82-34l-72-34-55-41-55-41-52-61-51-61-30-57c-17-31-40-83-51-116l-21-59-20-123-20-123V785l20-115 19-115 25-65c35-94 53-127 108-202l49-67 54-49 53-49 79-41c43-22 106-50 140-61l62-21h636l45 11 45 10 102 49 101 50 62 57 62 57 45 63 46 64 29 72 30 72 24 115 24 115v300l-15 84c-21 120-42 196-72 265l-27 61-52 71-53 70-61 48-62 49-66 32-67 33-100 27-100 28-215 3-215 3-70-8zm412-481c24-11 62-33 83-50l39-31 34-57 35-57 16-66 16-65V825l-19-76-19-76-26-46-27-46-39-35c-21-19-50-42-64-51l-25-16-82-20-83-21-35 7c-20 4-58 14-86 22l-50 16-42 29c-22 15-57 46-77 69l-35 41-21 46-22 45-16 90-16 89 12 69c7 38 12 82 12 97v27l26 55 25 55 42 43 42 44 45 23 45 23 55 11c85 17 91 17 154 9l58-8 45-20zm888 484l-10-4 2-887c1-489 2-894 3-900V0h530l40 43c45 48 491 626 608 789 42 59 80 107 85 108h7V0h510v1798l-16 6-16 6h-409l-32-14-32-14-41-43c-23-24-184-234-358-466l-317-423h-19l-2 478-3 477-260 2c-143 1-264 0-270-3z"/></g><g fill="transparent" stroke="transparent" stroke-width="10"><path d="M0 2204v-16l15 12c8 7 15 14 15 16s-7 4-15 4H0v-16zm3627 1l22-15 50-90 51-90v-38l-22-6-23-6H53l-27 21-26 20v-226l210 3 209 3 21-11 20-11V892l24-6 24-6 14 5c13 5 20 15 97 152 25 43 96 166 159 273l114 195 26 28 26 27h238l28-30c16-17 45-61 66-98 20-37 95-169 166-294l129-226 19-17 19-17 26 6 25 6v878l16 6 16 6h406l11-14 11-13-2-863-3-862-19-14-20-14h420l419 1-35 15c-64 28-104 80-135 178-7 22-41 120-75 216s-70 200-80 230-46 134-80 230c-33 96-67 193-74 215-14 40-130 371-167 475-11 30-25 70-30 89-6 18-20 51-31 72l-20 38 7 11 6 10h469l20-20 20-20v-22c0-13 16-68 35-123s35-108 35-117v-18l20-20 20-20h668l11 13c11 15 74 200 85 252 4 17 15 45 26 63l20 32h227l20-22c11-13 31-43 43-68s38-71 57-103l35-58-5-32c-3-18-22-77-42-132s-41-113-45-130c-5-16-20-61-35-100-14-38-59-167-99-285-41-118-102-294-136-390s-74-212-90-257c-16-46-38-99-50-118l-22-35-21-13c-12-6-35-17-52-24l-30-11 288-1 287-1v11c0 6 15 37 34 68 18 31 53 92 76 136l120 220c43 77 141 258 219 402l142 263-112 207c-61 115-135 251-164 303s-99 181-155 285c-56 105-120 220-142 258l-40 67h-332l21-15zm878-12c25-28 55-76 123-203 74-138 151-278 163-298l14-22h54l29 53c16 28 73 133 127 232s110 199 126 223l29 42h-691l26-27zm1189-26c-32-53-174-310-247-447-34-64-219-402-310-568l-29-53 68-122c37-67 77-140 89-162s97-179 189-350c93-171 189-345 215-388l46-77h329l-30 29-29 29-68 125-67 124 2 734 3 734 224 3 223 2 14-11 14-11V12l-12-5-13-5h970l-82 14c-106 18-188 45-286 96l-79 41-53 49-54 49-49 67c-55 75-73 108-108 202l-25 65-19 115-20 115v165l20 123 20 123 21 59c11 33 34 85 51 116l30 57 51 61 52 61 55 41c63 48 159 95 233 116 29 8 70 19 92 26l40 11h460l100-28 100-28 67-33 66-32 62-49 61-48 53-70 52-71 27-61c30-69 51-145 72-265l15-84V765l-24-115-24-115-30-72-29-72-46-64-45-63-62-57-62-57-101-50-102-49-90-20c-49-11-103-21-120-24-16-2 190-5 459-6l489-1-17 19-17 19-2 866-2 867 20 5c11 2 119 3 240 2l220-3 2-474 2-475 15-15 15-15 25 12 25 11 316 423c175 233 336 443 359 467l41 43 32 14 32 14h362l24-25 25-24v270l-26-20-27-21H5955l-22 6-23 6v40l19 26c10 15 31 51 45 81l28 53 25 24 26 24h-164l-164-1-31-52zm4506 49c0-2 7-9 15-16l15-12v32h-15c-8 0-15-2-15-4z"/><path d="M7355 1384c-11-2-45-9-75-15l-55-11-45-23-45-23-41-44-42-43-22-45-23-45-8-60c-5-33-12-98-15-145l-6-85 16-82 15-82 21-44c27-57 81-120 133-155l42-29 55-17 55-18 57-5 57-6 78 18c95 22 115 32 175 84l46 41 27 46 27 47 19 76 19 76v231l-19 71-18 71-39 58-39 58-49 33-48 33-52 15-51 14-65 5c-36 2-74 3-85 0zm-4435-294l-15-9 13-33c39-100 152-488 152-520v-17l19-11 20-10h99l9 13c5 6 17 41 27 77 48 178 105 370 132 441l18 47-13 16-13 16h-433l-15-10zM977 898c-73-138-323-623-373-722l-39-80-46-48-45-48h1169l-38 39-38 39-47 89c-128 245-226 435-305 593-48 96-98 190-112 208l-24 32h-48l-54-102zm8648 0c-60-84-433-572-571-749l-75-95-42-27-41-27h859l-5 487-5 488-30 3-30 3-60-83zM4768 463c-25-43-76-134-112-203-37-69-71-132-76-140-6-8-19-32-30-52l-20-37-22-15-22-16h688l-21 15-21 15-35 62c-33 61-66 121-150 278-22 41-53 96-69 123l-30 47h-34l-46-77zM0 22V0h32L19 18C12 27 4 37 3 39c-2 2-3-5-3-17z"/></g></svg>