<svg width="969" height="164" viewBox="0 0 969 164" fill="none" xmlns="http://www.w3.org/2000/svg"><path fill-rule="evenodd" clip-rule="evenodd" d="M.21 163.36V.04H173.6v163.32H.21zm277.13-5.87L213.11 4.36h46.67l40.93 98.41 40.94-98.41h46.06l-64 153.13h-46.37zm445.72 0V46.77h-41.6V4.29H809v42.48h-42.71v110.72h-43.23zm-80.31-59.18c17.63-7.57 28.17-25.6 28.17-44.64 0-28.44-22.83-49.58-50.86-49.58h-77.21v153.4h41.82V93.92l54 63.57h54.51l-50.43-59.18zm-34.58-22.22h-23.5V39l23.5.07c12.23 0 20.46 5.27 20.46 18.5S620.4 76 608.17 76.09z" fill="#254887"/><path fill-rule="evenodd" clip-rule="evenodd" d="M1.77 1.65l84.02 133.68 86.12-133.6L1.77 1.65z" fill="#FBCA00"/><path fill-rule="evenodd" clip-rule="evenodd" d="M478.09 4.16h-48.71l-63.89 153.39H411l7.78-19.55h69.84l8.3 19.52h45.73L478.09 4.16zm-44.58 98.07l20.32-48 19.86 48h-40.18zM904.42 4.16h-48.7l-63.9 153.39h45.46l7.77-19.52H915l8.31 19.52H969L904.42 4.16zm-44.65 98.07l20.4-48 19.86 48h-40.26z" fill="#254887"/></svg>