<svg 
  xmlns="http://www.w3.org/2000/svg" 
  width="560" 
  height="560" 
  viewBox="0 0 5600 5600"
>
  <g fill="#fff"><g >
  <path d="M1460 5500 c-657 -85 -1219 -579 -1385 -1216 -89 -341 -71 -748 55 -1233 203 -778 732 -1880 1347 -2803 125 -188 144 -203 239 -195 35 2 75 12 88 20 35 23 224 307 401 602 245 410 515 917 515 970 0 20 -17 44 -66 93 -99 99 -180 213 -239 337 -133 275 -158 537 -79 820 30 108 126 307 189 390 72 95 198 220 284 280 l79 55 4 163 c3 154 4 165 31 219 39 80 125 157 210 188 l27 10 0 267 0 268 -171 178 c-94 98 -208 206 -253 241 -203 158 -436 269 -690 328 -74 17 -130 21 -306 24 -118 1 -244 -1 -280 -6z m260 -385 c42 -22 49 -54 17 -81 -20 -17 -44 -24 -104 -28 -252 -19 -428 -76 -618 -200 -262 -171 -447 -447 -517 -771 -20 -94 -17 -436 6 -560 37 -206 107 -446 199 -678 l50 -128 -23 -24 c-29 -31 -41 -31 -68 -2 -18 20 -125 280 -150 368 -5 19 -26 88 -46 153 -150 490 -140 845 34 1197 127 259 359 493 619 624 197 99 524 170 601 130z"></path>
  <path d="M3375 5486 c-23 -14 -51 -43 -65 -68 l-25 -43 0 -557 1 -557 24 -25 c23 -26 25 -26 177 -26 160 0 203 9 217 45 11 30 7 1111 -5 1142 -14 38 -57 83 -96 99 -18 8 -66 14 -110 14 -65 0 -85 -4 -118 -24z"></path>
  <path d="M4842 4569 c-55 -27 -106 -88 -122 -144 -8 -27 -11 -75 -8 -119 4 -62 10 -83 36 -123 17 -26 47 -59 67 -72 l35 -24 0 -298 0 -299 -201 0 c-119 0 -208 -4 -220 -10 -15 -9 -19 -21 -19 -63 1 -47 5 -58 51 -114 l49 -63 246 0 c264 0 300 6 326 52 10 18 12 104 9 408 l-3 385 47 33 c66 47 95 112 95 217 -1 121 -38 188 -132 236 -55 28 -197 27 -256 -2z"></path>
  <path d="M3135 4078 c-40 -14 -94 -65 -111 -105 -9 -21 -14 -72 -14 -148 l0 -115 36 0 c19 0 43 4 53 10 37 19 211 59 307 70 113 12 272 -4 404 -41 84 -23 147 -21 167 7 18 24 17 175 -1 217 -20 46 -78 97 -122 108 -55 12 -682 10 -719 -3z"></path>
  <path d="M3315 3663 c-72 -11 -190 -45 -261 -74 -84 -35 -224 -124 -295 -187 -109 -98 -221 -262 -279 -415 -83 -214 -92 -498 -24 -735 85 -292 322 -556 608 -673 264 -109 620 -108 881 3 228 97 418 277 529 503 91 183 124 355 111 579 -26 470 -340 857 -791 977 -64 17 -115 22 -264 24 -102 2 -198 1 -215 -2z m123 -490 c25 -23 731 -909 738 -928 3 -8 -6 -26 -20 -40 -21 -21 -30 -24 -45 -16 -11 6 -165 193 -342 416 -322 402 -324 405 -361 405 -36 0 -39 -3 -220 -237 -198 -257 -244 -313 -261 -313 -13 0 -57 40 -57 52 0 10 26 46 106 148 28 36 122 157 209 270 217 282 213 278 253 243z"></path>
  <path d="M5255 2839 c-52 -13 -99 -45 -132 -91 l-26 -38 -193 0 -194 0 0 -125 0 -125 191 0 191 0 40 -45 c61 -69 100 -85 206 -85 133 0 197 36 242 136 31 71 26 201 -12 265 -57 97 -178 139 -313 108z"></path>
  <path d="M4455 1861 c-50 -64 -55 -74 -55 -119 0 -36 4 -52 16 -56 9 -3 110 -6 225 -6 l209 0 0 -299 0 -299 -34 -22 c-127 -78 -144 -314 -29 -422 45 -43 93 -58 185 -58 123 1 203 47 242 142 18 43 21 164 5 221 -9 34 -58 93 -113 136 -17 13 -18 41 -15 395 3 299 1 386 -10 404 -25 46 -61 52 -325 52 l-245 0 -56 -69z"></path>
  </g></g>
  <g fill="transparent">
  <g>
  <path d="M0 2800 l0 -2800 2800 0 2800 0 0 2800 0 2800 -2800 0 -2800 0 0 -2800z m2016 2652 c253 -59 487 -170 690 -328 45 -35 159 -143 253 -241 l171 -178 0 -238 0 -237 -27 -10 c-85 -31 -171 -108 -210 -188 -27 -54 -28 -65 -31 -219 l-4 -163 -79 -55 c-86 -60 -212 -185 -284 -280 -61 -81 -159 -281 -189 -387 -48 -169 -59 -421 -26 -578 53 -248 170 -467 343 -641 l66 -66 -108 -209 c-140 -272 -245 -460 -406 -729 -172 -287 -366 -579 -399 -600 -11 -7 -38 -17 -58 -20 -63 -12 -94 17 -211 193 -439 659 -844 1426 -1112 2102 -468 1184 -458 1891 33 2499 256 316 655 538 1062 591 119 16 424 5 526 -18z m1557 14 c39 -16 82 -61 96 -99 12 -31 16 -1052 5 -1082 -13 -34 -58 -45 -187 -45 -119 0 -124 1 -147 25 l-23 25 -1 527 -1 528 25 43 c46 81 148 115 233 78z m1495 -925 c53 -27 90 -65 112 -113 44 -96 11 -220 -75 -280 l-46 -33 2 -386 c1 -286 -2 -391 -10 -408 -24 -45 -64 -51 -296 -50 l-216 1 -49 61 c-53 66 -62 100 -31 117 12 6 101 10 220 10 l201 0 0 329 0 328 -35 24 c-112 76 -136 236 -49 337 67 79 187 106 272 63z m-1244 -490 c44 -11 102 -62 122 -108 14 -33 19 -119 8 -148 -12 -30 -47 -34 -120 -14 -113 31 -297 52 -399 44 -134 -10 -287 -42 -377 -80 -16 -6 -18 1 -18 79 0 52 6 100 14 119 17 40 71 91 111 105 37 13 604 15 659 3z m-60 -440 c508 -134 845 -624 786 -1141 -15 -135 -43 -229 -106 -355 -111 -226 -301 -406 -529 -503 -255 -108 -563 -109 -821 -3 -286 117 -523 381 -608 673 -100 346 -27 702 200 979 139 170 340 297 552 349 114 28 123 29 292 25 117 -3 175 -9 234 -24z m1642 -807 c98 -33 152 -101 161 -201 4 -46 0 -68 -17 -107 -41 -91 -111 -136 -212 -136 -73 0 -121 23 -176 85 l-40 45 -191 0 -191 0 0 95 0 95 194 0 193 0 26 38 c33 46 80 78 132 91 58 13 69 13 121 -5z m-401 -918 c59 -25 58 -24 56 -442 -2 -351 -1 -383 15 -396 9 -7 36 -32 60 -55 142 -139 36 -383 -166 -383 -112 0 -200 74 -225 188 -17 80 30 189 101 232 l34 22 0 329 0 329 -209 0 c-115 0 -216 3 -225 6 -28 11 -17 44 39 115 l56 69 215 0 c162 0 223 -3 249 -14z"></path>
  <path d="M1560 5153 c-73 -7 -236 -46 -319 -75 -189 -67 -359 -175 -506 -322 -165 -165 -277 -346 -343 -556 -97 -305 -82 -653 44 -1066 20 -65 41 -134 46 -153 25 -88 132 -348 150 -368 45 -48 132 -22 153 45 4 15 -10 64 -48 160 -95 237 -166 477 -203 687 -22 122 -25 408 -6 500 94 437 390 771 809 914 71 24 210 48 325 57 86 6 121 25 132 70 10 37 -11 82 -45 99 -26 14 -101 17 -189 8z"></path>
  <path d="M3363 3215 c-12 -9 -100 -116 -194 -238 -95 -122 -195 -251 -223 -287 -100 -127 -108 -140 -108 -176 0 -52 34 -84 88 -84 52 0 48 -4 292 313 101 131 188 237 192 235 5 -2 155 -186 333 -409 179 -223 332 -409 342 -412 64 -25 125 15 125 81 0 37 -25 71 -365 498 -201 253 -378 467 -393 476 -33 22 -61 23 -89 3z"></path>
  </g></g>
  </svg>