<svg xmlns="http://www.w3.org/2000/svg" width="512" height="512" viewBox="0 0 5120 5120"><g fill="#fff"><g ><path d="M213 5110 c-84 -17 -150 -70 -187 -150 l-21 -45 0 -1630 0 -1630 21 -46 c24 -52 81 -111 124 -129 l30 -12 0 -167 c0 -186 8 -218 71 -280 63 -64 106 -76 264 -76 126 0 145 2 187 23 26 13 63 41 82 62 52 58 66 118 66 286 l0 143 408 4 c224 1 417 7 430 11 l22 8 0 -279 c0 -154 5 -304 10 -334 22 -114 92 -220 187 -283 50 -33 147 -66 195 -66 l38 0 0 -157 c0 -144 2 -162 24 -208 25 -55 79 -108 135 -134 53 -24 469 -24 522 0 56 26 110 79 135 134 22 46 24 64 24 208 l0 157 563 0 c599 0 598 0 698 50 30 15 168 146 421 399 346 345 380 382 409 444 20 44 34 95 40 145 6 45 8 725 7 1642 -3 1452 -5 1569 -21 1614 -48 137 -146 235 -283 283 -46 17 -192 18 -2304 19 -1240 1 -2274 -2 -2297 -6z m2152 -185 l25 -24 0 -1258 0 -1258 -24 -50 c-18 -38 -96 -122 -337 -361 -173 -172 -330 -320 -349 -330 -32 -18 -71 -19 -487 -24 l-451 -5 -26 -24 c-25 -23 -25 -24 -28 -227 l-3 -204 -27 -27 c-24 -24 -36 -27 -112 -31 -106 -6 -152 3 -182 33 -24 24 -24 27 -24 210 0 232 -5 247 -84 270 -32 10 -62 26 -71 38 -13 19 -15 213 -15 1635 l0 1613 25 24 24 25 1061 0 1061 0 24 -25z m2102 -338 c42 -22 98 -78 120 -120 17 -30 18 -113 21 -1367 2 -986 0 -1349 -8 -1390 -23 -109 -57 -153 -298 -392 -234 -232 -265 -256 -369 -283 -87 -23 -1478 -22 -1544 0 -64 22 -113 67 -146 133 l-28 57 -2 330 -3 330 88 74 87 75 5 -393 5 -393 28 -24 28 -24 712 0 712 0 55 26 c44 20 97 67 256 227 111 111 210 218 220 237 18 34 19 89 22 1363 l2 1328 -24 24 -25 25 -871 0 -870 0 0 90 0 90 898 -2 c836 -3 899 -4 929 -21z m-412 -753 c20 -8 45 -56 45 -87 0 -38 -41 -74 -91 -82 -24 -3 -311 -5 -637 -3 l-594 3 -24 28 c-32 38 -32 90 1 122 l24 25 630 0 c346 0 637 -3 646 -6z m-149 -447 c26 -31 31 -66 12 -100 -25 -47 -18 -46 -504 -47 l-461 0 -27 25 c-47 44 -29 124 34 148 8 3 219 5 468 4 l454 -2 24 -28z m-366 -499 c99 -27 206 -92 263 -158 78 -92 127 -224 127 -345 -1 -90 -34 -173 -140 -340 -52 -82 -143 -246 -203 -363 -60 -116 -117 -217 -127 -222 -27 -15 -72 -12 -97 5 -12 8 -75 120 -141 249 -66 129 -158 294 -206 367 -105 161 -121 207 -113 333 12 215 140 389 341 463 81 30 212 35 296 11z"></path><path d="M769 4416 c-62 -22 -106 -63 -145 -136 -18 -34 -19 -72 -19 -995 l0 -960 22 -41 c27 -50 75 -97 122 -121 32 -16 72 -18 356 -21 281 -2 325 -1 365 14 59 22 424 380 461 452 l24 47 0 795 0 795 -22 41 c-26 49 -73 98 -117 122 -28 15 -79 17 -521 19 -386 2 -498 0 -526 -11z m658 -598 c33 -31 32 -96 -3 -129 -24 -22 -35 -24 -145 -28 -66 -2 -141 0 -166 4 -52 8 -93 44 -93 82 0 29 25 79 42 86 7 3 87 6 177 6 156 1 166 0 188 -21z m-31 -408 c38 -15 53 -38 54 -83 0 -27 -7 -45 -25 -62 -24 -25 -27 -25 -187 -25 -170 1 -183 4 -206 47 -25 46 -5 104 42 123 30 12 289 12 322 0z m29 -445 c48 -47 25 -135 -39 -151 -13 -3 -90 -4 -171 -2 -147 3 -147 3 -171 31 -37 43 -27 113 20 135 11 6 92 11 179 11 155 1 158 1 182 -24z"></path><path d="M3364 2719 c-105 -13 -201 -85 -252 -189 -23 -47 -27 -68 -27 -141 l0 -85 80 -120 c44 -65 118 -192 164 -281 l85 -162 73 140 c40 76 106 193 148 258 121 191 130 221 100 335 -43 165 -197 267 -371 245z"></path></g></g></svg>