<?xml version="1.0" standalone="no"?>
<!DOCTYPE svg PUBLIC "-//W3C//DTD SVG 20010904//EN"
 "http://www.w3.org/TR/2001/REC-SVG-20010904/DTD/svg10.dtd">
<svg version="1.0" xmlns="http://www.w3.org/2000/svg"
 width="612.000000pt" height="612.000000pt" viewBox="0 0 612.000000 612.000000"
 preserveAspectRatio="xMidYMid meet">

<g transform="translate(0.000000,612.000000) scale(0.100000,-0.100000)"
fill="#000000" stroke="none">
<path d="M2740 5824 c-723 -86 -1362 -435 -1833 -1002 -223 -268 -429 -661
-523 -998 -31 -111 -68 -289 -85 -414 -18 -127 -18 -572 -1 -700 46 -326 128
-594 272 -886 134 -272 301 -505 520 -725 438 -440 989 -713 1620 -801 127
-17 573 -17 700 0 511 72 974 266 1366 573 117 92 311 278 408 392 l67 79 -53
56 c-179 189 -255 445 -227 766 16 190 49 325 144 591 56 156 107 354 137 530
17 101 22 172 22 315 0 177 -1 189 -28 270 -30 89 -72 179 -112 240 -14 20
-22 43 -19 51 6 17 -121 115 -240 185 -246 145 -586 256 -911 299 -193 25
-298 17 -380 -31 -94 -54 -124 -130 -104 -268 l12 -83 74 5 c41 2 74 3 74 1 0
-2 7 -52 15 -111 22 -167 92 -424 142 -522 14 -27 14 -31 -3 -44 -18 -14 -18
-14 5 -9 13 3 36 0 51 -8 25 -13 29 -12 50 10 13 14 35 26 49 26 24 2 24 2 4
6 -30 6 -29 20 6 117 36 97 70 232 106 421 15 77 31 144 35 149 11 11 160 -20
176 -36 11 -11 9 -29 -6 -98 -18 -83 -85 -333 -132 -495 l-23 -80 -45 2 c-25
0 -34 -1 -20 -4 14 -2 29 -8 33 -13 5 -4 -7 -70 -26 -146 -48 -191 -55 -229
-66 -384 l-10 -135 -38 -33 c-23 -20 -40 -29 -46 -23 -6 6 -17 5 -29 -2 -17
-10 -24 -7 -50 23 -54 64 -58 74 -69 196 -7 77 -24 172 -50 269 l-39 150 37
34 38 34 -38 -27 c-20 -15 -41 -25 -46 -22 -18 12 -81 155 -96 221 -19 86 -65
237 -112 372 -25 73 -33 106 -25 115 7 9 6 36 -5 88 -26 136 -5 241 65 313 81
84 180 112 361 104 334 -15 733 -132 1051 -307 l75 -42 -50 52 c-128 132 -342
281 -539 376 -355 170 -783 246 -1041 185 -155 -37 -315 -127 -437 -246 -56
-54 -69 -75 -48 -75 17 0 80 -62 80 -79 0 -10 -9 -26 -21 -37 -58 -52 -241
-367 -289 -498 -22 -56 -23 -58 -53 -52 l-30 6 34 -23 c21 -14 35 -32 37 -47
3 -23 6 -25 47 -22 25 2 45 8 45 13 0 4 45 31 101 59 109 55 241 138 386 243
51 37 97 67 102 67 13 0 64 -67 89 -116 20 -39 20 -43 4 -56 -18 -17 -171
-118 -177 -118 -2 0 -43 -24 -92 -53 -123 -75 -254 -152 -282 -167 -23 -12
-27 -10 -59 26 -31 35 -32 36 -12 6 28 -41 33 -35 -122 -131 -141 -86 -190
-123 -298 -221 -45 -41 -89 -79 -97 -84 -15 -8 -103 1 -103 10 0 7 65 89 104
133 17 18 57 51 88 72 32 22 62 49 68 62 9 19 9 20 -2 7 -7 -9 -43 -38 -79
-65 -61 -46 -114 -101 -164 -169 -32 -44 -55 -27 -55 39 0 74 11 97 90 190 40
47 100 137 144 215 69 124 77 136 108 141 30 6 31 6 6 8 -20 1 -28 6 -28 19 0
38 51 167 95 241 50 82 205 394 205 411 0 9 14 14 32 11 4 0 29 22 55 50 61
65 199 169 284 214 167 87 353 123 554 105 427 -38 853 -208 1180 -473 105
-85 272 -257 333 -344 14 -20 28 -30 38 -26 37 14 145 -164 192 -318 82 -269
33 -747 -123 -1186 -115 -320 -148 -479 -148 -693 0 -165 24 -275 83 -390 38
-73 132 -191 143 -180 20 19 148 235 196 329 279 550 368 1184 251 1796 -81
425 -281 855 -560 1205 -100 126 -302 330 -420 423 -427 341 -931 548 -1472
607 -133 14 -458 11 -598 -6z m-176 -3070 c12 -12 16 -37 16 -110 l0 -94 465
0 465 0 0 100 c0 88 2 100 19 110 11 5 84 10 166 10 82 0 155 -5 166 -10 17
-10 19 -22 19 -110 l0 -100 248 -2 247 -3 0 -795 0 -795 -1332 -3 -1333 -2 0
800 0 800 250 0 250 0 0 100 c0 84 3 101 18 109 9 6 84 11 169 11 125 0 154
-3 167 -16z"/>
<path d="M1890 2378 c0 -2 0 -284 0 -628 l-1 -625 1156 -3 1155 -2 0 630 0
630 -1155 0 c-635 0 -1155 -1 -1155 -2z m621 -110 c1 -7 2 -49 3 -93 l1 -80
93 -3 92 -3 0 -79 0 -79 -92 -3 -93 -3 -1 -90 -2 -90 -78 0 -79 0 -3 93 -3 92
-94 0 -95 0 0 80 0 80 95 0 95 0 0 95 0 95 80 0 c57 0 80 -4 81 -12z m1496
-228 c3 -24 2 -59 -2 -77 l-6 -33 -264 0 -265 0 -1 60 c-1 33 -2 66 -3 73 -1
6 -1 15 2 20 2 4 123 6 269 5 l266 -3 4 -45z"/>
<path d="M2508 4013 c7 -3 16 -2 19 1 4 3 -2 6 -13 5 -11 0 -14 -3 -6 -6z"/>
<path d="M2475 3859 c-27 -25 -45 -50 -44 -63 0 -21 0 -21 9 0 4 11 24 34 44
52 28 24 46 32 76 32 22 0 40 5 40 10 0 6 -18 10 -40 10 -33 0 -48 -7 -85 -41z"/>
<path d="M2528 3849 c-21 -12 -24 -49 -6 -67 18 -18 56 -14 68 7 12 24 4 48
-21 61 -21 12 -20 12 -41 -1z"/>
<path d="M2421 3734 c0 -11 3 -14 6 -6 3 7 2 16 -1 19 -3 4 -6 -2 -5 -13z"/>
<path d="M3998 3603 c7 -3 16 -2 19 1 4 3 -2 6 -13 5 -11 0 -14 -3 -6 -6z"/>
<path d="M3843 3500 c-18 -22 -23 -41 -23 -88 0 -34 3 -63 8 -66 4 -2 6 13 4
35 -5 53 3 81 34 118 16 19 21 31 12 30 -7 0 -23 -13 -35 -29z"/>
<path d="M3872 3468 c-28 -28 -6 -68 39 -68 30 0 45 26 34 60 -7 23 -53 28
-73 8z"/>
<path d="M3840 3326 c0 -2 8 -10 18 -17 15 -13 16 -12 3 4 -13 16 -21 21 -21
13z"/>
<path d="M3887 3185 c-15 -142 -18 -211 -8 -255 8 -37 8 -29 4 42 -4 53 -1
111 6 145 7 32 11 76 9 98 -3 33 -5 28 -11 -30z"/>
</g>
</svg>
