<svg xmlns="http://www.w3.org/2000/svg" width="512" height="512" viewBox="0 0 5120 5120"><g fill="#fff"><path d="M1298 4879c-204-27-368-174-443-398l-25-76V760h970v115c0 63 3 115 6 115 4 0 158-114 343-253 401-303 457-342 494-351 41-10 123 17 190 61 239 160 1468 1004 1493 1025 17 16 42 52 55 80l24 53v1410c0 1320-1 1414-18 1475-50 184-154 302-323 368l-69 27-1315 1c-723 1-1345-2-1382-7zm1388-466c27-17 26-13 24-150-2-105 4-143 21-143 5 0 33 16 62 35 61 41 99 44 132 11s41-71 23-110c-12-23-39-44-108-81-117-63-130-79-130-161 0-76 6-78 80-33 75 46 84 40 90-59l5-82 80 48 80 47 2 120c4 150 6 161 45 181 26 13 38 14 69 5 54-16 69-43 69-123 0-48 4-68 13-68 6 0 55 24 107 54 115 64 130 69 164 57 49-19 83-109 57-150-5-7-58-42-117-76-60-35-109-67-108-71 0-5 29-24 63-42 71-39 88-66 71-118-27-80-90-84-208-14-113 68-124 70-205 25-37-20-67-39-67-41s24-18 54-34c94-54 95-67 5-118-70-39-66-53 27-101 39-20 68-29 80-25 10 4 60 31 110 60 57 34 102 54 121 54 56 0 99-76 77-134-3-9-30-29-59-46-87-50-87-49 27-115 125-72 138-85 138-131 0-28-8-44-34-70-48-48-74-45-200 27-58 34-109 59-113 56-3-4-5-38-4-77 2-63-1-72-23-95-35-35-97-35-131 0-24 23-25 30-25 142 0 89-4 124-15 140-13 18-133 93-149 93-3 0-6-38-6-85 0-67-3-87-15-91-8-3-44 10-80 30l-66 36 3-82 3-81 85-48c149-83 170-111 136-178-14-26-53-51-81-51-8 0-43 16-78 35-55 30-66 33-71 19-3-8-6-69-6-135 0-105-2-121-20-139-27-27-65-35-111-21-60 18-67 38-67 179 0 68-2 126-5 129s-32-11-64-31-70-36-84-36c-36 0-76 34-84 71-12 56 8 82 110 138 124 68 135 83 135 178v74l-75-41c-42-23-82-39-90-36-10 4-15 27-17 85l-3 80-70-42-70-42-5-134c-5-130-5-133-33-157-34-29-71-31-114-4-31 19-32 22-35 96-2 43-8 79-13 81-6 2-55-22-109-52-122-67-130-70-167-54-37 15-59 55-59 108 0 46 5 51 143 126 48 27 87 54 87 61 0 6-25 24-55 39-31 15-63 38-71 51-22 33-11 87 23 114 42 33 81 26 184-35 51-30 104-55 117-55 22 0 142 59 142 70 0 3-32 22-71 43-49 27-69 44-67 55 3 14 33 36 128 92 18 11 2 25-79 66l-54 27-61-32c-33-17-87-45-118-62-41-22-64-30-82-25-32 8-63 40-69 73-9 48 10 77 74 112 33 18 58 38 56 44-2 7-50 40-108 74-113 67-133 92-118 147 5 17 20 41 34 53 48 42 65 40 179-26 58-34 112-61 120-61 13 0 16 14 16 75 0 93 16 115 85 115 35 0 52-6 70-25 24-23 25-30 25-148 0-84 4-128 13-139 12-15 118-78 132-78 4 0 5 34 3 75-3 51-1 81 7 92 14 19 21 17 113-37l52-30v74c0 73-1 76-32 99-18 14-68 44-111 67-42 23-82 50-87 60-17 31-11 67 15 98 39 47 67 48 142 6 35-19 68-33 71-29 4 4 8 59 10 123 1 64 5 127 8 140 10 48 103 63 160 25zm1202-2629c-7-7-278-193-601-414-392-266-593-398-600-392-67 51-438 355-442 362-3 5 367 272 822 595l828 586 3-363c2-281-1-365-10-374z"/><path d="M827 549c-8-63 4-191 22-222 8-15 34-40 56-55l40-27 350-3c221-2 363 1 385 7 39 11 92 58 122 106 14 24 18 50 18 133v102H833l-6-41z"/></g></svg>