<svg xmlns="http://www.w3.org/2000/svg" width="512" height="512" viewBox="0 0 5120 5120"><path d="M2407 5108c-228-11-256-32-268-205-12-174-68-295-184-402-136-123-294-169-475-137-106 19-228 78-303 146-30 27-66 54-81 60-36 13-86 12-112-3-39-22-227-194-294-269-151-169-155-174-155-238 0-54 3-61 43-106 62-71 118-158 141-220 80-212 29-438-133-600-105-105-198-148-355-164-107-12-164-37-193-86-39-67-40-584-1-662 29-58 60-74 165-83 172-15 302-72 408-179 212-213 211-561-1-785-71-75-88-141-51-197 34-51 187-219 262-286 224-202 245-207 379-95 115 96 223 141 361 150 106 7 185-8 275-51 92-43 169-110 227-197 59-86 88-177 95-292 6-98 25-137 79-169 40-24 272-36 475-26 166 8 200 18 236 65 23 30 27 48 34 141 12 164 51 258 151 368 132 145 312 205 508 170 106-19 228-78 303-146 30-27 66-54 81-60 36-13 86-12 112 3 39 22 227 194 294 269 151 169 155 174 155 238 0 54-3 61-43 106-62 71-118 158-141 220-93 248-3 524 219 673 75 50 162 79 275 92 102 11 159 37 187 85 38 65 40 580 2 659-29 61-64 78-178 86-159 10-265 54-373 153-70 63-125 146-155 234-27 80-32 245-9 327 22 79 81 184 138 245 57 62 73 94 73 143 0 40-15 62-120 182-137 155-319 312-375 325-54 12-88-2-167-69-109-93-221-139-358-148-106-7-185 8-275 51-92 43-169 110-227 197-59 86-88 177-95 292-6 98-25 137-79 169-41 24-266 36-477 26zm331-1078c185-24 391-92 556-184l69-38-329-330c-261-260-333-328-349-324-11 3-63 17-115 32-114 31-290 36-405 11-334-72-600-325-686-652-42-162-32-426 19-495 23-31 61-45 96-36 16 4 116 94 254 230 125 122 234 225 243 229 35 12 341-36 358-57 10-13 37-144 46-226 3-30 8-72 11-92 6-37 5-39-230-282-202-209-236-249-236-275 0-74 80-110 265-118 169-8 296 18 440 90 410 204 601 677 448 1110l-17 48 324 324c178 178 328 321 333 318 15-9 103-200 131-283 142-428 79-909-169-1285-450-681-1369-869-2050-420-571 378-807 1091-575 1742 161 453 555 809 1030 929 158 40 380 54 538 34z" fill="#fff"/></svg>