<svg
  class="svg-icon"
  width="400px"
  height="400px"
  viewBox="0 0 1024 1024"
  version="1.1"
  xmlns="http://www.w3.org/2000/svg"
>
  <path
    d="M940.8 349.866667L652.8 140.8c-25.6-19.2-61.866667-21.333333-89.6-6.4-32 17.066667-51.2 49.066667-51.2 83.2V277.333333C253.866667 277.333333 42.666667 488.533333 42.666667 746.666667c0 40.533333 4.266667 78.933333 14.933333 117.333333 4.266667 19.2 21.333333 32 40.533333 32 19.2 0 36.266667-12.8 40.533334-32C183.466667 695.466667 337.066667 576 512 576v59.733333c0 36.266667 19.2 68.266667 49.066667 83.2 12.8 6.4 25.6 8.533333 38.4 8.533334 17.066667 0 36.266667-6.4 51.2-17.066667L938.666667 501.333333c23.466667-17.066667 38.4-46.933333 38.4-76.8 2.133333-27.733333-10.666667-57.6-36.266667-74.666666z"
    fill="#594d46"
  />
</svg>
