<svg width="1092" height="583" viewBox="0 0 1092 583" fill="none" xmlns="http://www.w3.org/2000/svg">
<path d="M744.631 421.384C723.838 421.384 703.546 421.384 682.075 421.384C684.606 416.365 686.588 412.241 688.739 408.206C695.911 394.755 703.145 381.338 710.352 367.906C717.743 354.128 725.189 340.378 732.502 326.558C740.243 311.933 747.789 297.205 755.544 282.587C762.85 268.818 770.35 255.154 777.7 241.408C793.99 210.947 810.24 180.471 826.48 149.988C843.57 117.911 860.62 85.8119 877.71 53.7379C881.14 47.3029 884.93 41.0499 888.1 34.4949C889.73 31.1299 892.01 30.6569 895.27 30.6649C929.29 30.7459 963.31 30.7149 997.33 30.7149C1026.68 30.7149 1056.03 30.7139 1085.38 30.7129C1087.33 30.7129 1089.28 30.7129 1090.92 30.7129C1090.92 62.5199 1090.84 93.5999 1090.93 124.68C1091.22 221.224 1091.57 317.768 1091.89 414.312C1091.91 421.378 1091.89 421.384 1084.92 421.383C1048.07 421.375 1011.21 421.296 974.36 421.447C970.04 421.464 968.57 420.442 968.69 415.914C969.25 394.969 969.41 374.014 969.82 353.065C969.99 344.528 970.11 344.53 961.52 344.529C930.67 344.529 899.81 344.613 868.96 344.438C864.37 344.411 862.23 346.052 860.49 350.246C853.15 368.004 845.38 385.588 837.82 403.258C836.01 407.507 834.13 411.761 832.77 416.164C831.62 419.898 829.75 421.48 825.68 421.458C798.83 421.313 771.98 421.384 744.631 421.384ZM968.81 235.943C968.81 196.42 968.81 156.896 968.81 117.372C968.5 117.193 968.2 117.014 967.89 116.835C946.43 158.403 924.96 199.971 903.13 242.241C905.91 242.38 907.39 242.517 908.86 242.518C927.04 242.532 945.22 242.376 963.4 242.633C967.97 242.698 969.48 241.147 968.81 235.943Z" fill="#B5BBBF"/>
<path d="M360.491 274.707C354.619 287.102 348.819 299.114 343.105 311.167C329.743 339.351 316.43 367.559 303.079 395.749C299.742 402.795 296.354 409.817 292.941 416.827C292.69 417.342 292.044 417.666 290.798 418.777C290.598 416.439 290.375 414.906 290.348 413.37C289.981 392.259 289.548 371.149 289.379 350.036C289.348 346.192 288.007 345.313 284.408 345.324C249.898 345.439 215.388 345.434 180.878 345.331C177.702 345.322 176.167 346.286 175.072 349.337C169.195 365.711 163.13 382.019 157.028 398.311C154.596 404.804 151.77 411.151 149.384 417.66C148.237 420.791 146.145 421.429 143.194 421.414C129.357 421.344 115.518 421.384 101.68 421.384C70.0022 421.384 38.3252 421.384 6.64725 421.384C4.70225 421.384 2.75824 421.384 0.0732422 421.384C0.918242 419.285 1.33524 417.904 1.99924 416.653C13.2782 395.389 24.6142 374.155 35.8862 352.887C48.3302 329.407 60.6692 305.871 73.1542 282.413C83.2242 263.494 93.4612 244.663 103.593 225.776C117.472 199.905 131.401 174.059 145.152 148.119C152.208 134.809 158.782 121.243 165.831 107.929C173.131 94.14 180.787 80.539 188.201 66.81C194.111 55.866 199.773 44.785 205.862 33.943C206.751 32.36 209.405 30.852 211.245 30.847C275.433 30.689 339.622 30.735 403.81 30.657C407.215 30.653 408.478 31.595 408.471 35.159C408.376 80.435 408.484 125.712 408.267 170.988C408.251 174.436 406.536 178.046 404.997 181.291C390.274 212.344 375.419 243.334 360.491 274.707ZM278.857 129.633C259.577 166.893 240.297 204.153 220.835 241.764C222.423 242.176 223.041 242.476 223.659 242.477C243.331 242.51 263.004 242.452 282.675 242.574C286.553 242.598 286.359 240.307 286.378 237.674C286.653 199.586 286.967 161.499 287.239 123.411C287.252 121.555 286.962 119.696 286.813 117.839C286.251 117.68 285.688 117.521 285.126 117.362C283.14 121.225 281.155 125.087 278.857 129.633Z" fill="#B5BBBF"/>
<path d="M836.25 27.7029C842.58 27.7629 848.91 27.8199 855.24 27.8829C859.02 27.9209 860.53 28.7689 858.21 32.9269C849.31 48.8759 840.67 64.9709 832.03 81.0669C825.01 94.1619 818.17 107.358 811.17 120.467C804.1 133.716 796.83 146.866 789.85 160.164C788.08 163.556 785.4 163.552 782.31 163.551C708.166 163.524 634.02 163.532 559.875 163.533C529.883 163.533 499.892 163.533 469.901 163.533C467.95 163.533 465.999 163.533 462.164 163.533C464.751 157.795 466.85 153.318 468.787 148.772C469.875 146.215 470.694 143.544 472.063 140.381C541.588 139.813 610.684 139.784 679.779 139.765C710.249 139.756 740.719 139.822 771.19 139.655C773.29 139.644 776.46 138.557 777.32 136.982C789.74 114.317 801.81 91.4649 814.02 68.6939C821.37 54.9979 828.84 41.3639 836.25 27.7029Z" fill="#B4BABE"/>
<path d="M520.4 420.348C512.506 436.645 504.563 452.918 496.729 469.244C479.247 505.669 461.804 542.113 444.405 578.578C443.07 581.377 441.578 582.896 438.074 582.89C372.715 582.774 307.356 582.806 241.997 582.791C240.863 582.791 239.729 582.604 237.743 582.43C240.893 575.575 243.8 569.14 246.797 562.747C276.445 499.524 306.105 436.308 335.765 373.091C360.132 321.157 384.529 269.237 408.811 217.263C410.39 213.883 412.07 212.277 416.173 212.283C521.048 212.418 625.923 212.39 730.799 212.39C731.952 212.39 733.106 212.39 735.341 212.39C730.703 221.909 726.369 230.804 721.704 240.233C709.009 265.419 696.557 290.026 684.367 314.762C682.348 318.858 680.07 320.478 675.311 320.445C641.503 320.207 607.692 320.403 573.883 320.217C569.397 320.192 567.011 321.587 565.104 325.655C554.214 348.888 543.032 371.984 532.017 395.159C528.048 403.509 524.267 411.949 520.4 420.348ZM323.624 413.268C298.286 467.316 272.948 521.363 247.034 576.642C250.349 576.642 252.274 576.642 254.199 576.642C313.557 576.642 372.915 576.58 432.272 576.754C437.226 576.769 439.676 575.118 441.647 570.685C447.175 558.246 453.147 546.002 459.028 533.721C477.318 495.523 495.646 457.342 513.963 419.157C529.92 385.893 545.961 352.668 561.734 319.318C563.548 315.484 565.71 314.394 569.715 314.41C603.561 314.547 637.41 314.358 671.255 314.624C676.526 314.666 679.311 312.829 680.791 308.154C681.041 307.364 681.357 306.586 681.731 305.846C693.646 282.275 705.587 258.718 717.482 235.137C720.125 229.898 722.609 224.579 725.627 218.345C722.439 218.345 720.483 218.345 718.526 218.345C619.319 218.345 520.112 218.371 420.905 218.254C416.636 218.248 414.381 219.5 412.564 223.442C399.974 250.754 387.143 277.955 374.374 305.184C357.581 340.994 340.773 376.797 323.624 413.268Z" fill="#301321"/>
<path d="M520.875 420.336C524.267 411.949 528.048 403.509 532.017 395.159C543.032 371.984 554.214 348.888 565.104 325.655C567.011 321.587 569.397 320.192 573.883 320.217C607.692 320.403 641.503 320.207 675.311 320.445C680.07 320.478 682.348 318.858 684.367 314.762C696.557 290.026 709.009 265.419 721.666 240.628C729.257 240.488 736.554 240.488 744.786 240.488C741.27 248.025 738.258 254.781 734.993 261.414C729.527 272.52 723.901 283.549 718.341 294.609C713.134 304.966 707.915 315.317 702.724 325.681C700.738 329.647 698.643 333.571 696.913 337.648C695.25 341.568 693.027 343.534 688.308 343.505C653.8 343.294 619.291 343.399 584.782 343.349C581.985 343.345 579.848 343.528 578.299 346.582C572.391 358.23 566.129 369.699 560.029 381.25C553.559 393.5 547.175 405.796 540.581 417.978C539.983 419.083 538.155 420.081 536.847 420.15C531.692 420.42 526.517 420.299 520.875 420.336Z" fill="#B4BABE"/>
<path d="M836.34 27.3579C828.84 41.3639 821.37 54.9979 814.02 68.6939C801.81 91.4649 789.74 114.317 777.32 136.982C776.46 138.557 773.29 139.644 771.19 139.655C740.719 139.822 710.249 139.756 679.779 139.765C610.684 139.784 541.588 139.813 472.122 139.955C463.178 140.072 454.605 140.072 445.108 140.072C450.393 128.78 455.094 118.734 459.797 108.69C474.465 77.3599 489.133 46.0299 503.81 14.7039C504.585 13.0489 505.824 11.5149 506.203 9.7839C508.006 1.5479 513.47 0.642896 520.954 0.658896C628.677 0.888896 736.4 0.815894 844.12 0.815894C845.89 0.815894 847.67 0.815894 850.43 0.815894C845.44 10.1529 840.94 18.5829 836.34 27.3579ZM457.019 128.948C456.452 130.366 455.884 131.785 455.045 133.881C457.984 133.881 459.965 133.881 461.946 133.881C563.296 133.881 664.645 133.838 765.99 134.012C770.94 134.021 773.42 132.261 775.58 128.188C794.92 91.8089 814.41 55.5069 833.85 19.1769C835.92 15.3039 837.93 11.3969 840.56 6.3729C837.32 6.3729 835.4 6.3739 833.47 6.3729C729.623 6.3719 625.774 6.4149 521.925 6.2479C516.291 6.2389 513.702 7.8279 511.25 13.1699C493.58 51.6639 475.388 89.9189 457.019 128.948Z" fill="#311422"/>
<path d="M323.798 412.936C340.773 376.797 357.581 340.994 374.374 305.184C387.143 277.955 399.974 250.754 412.564 223.442C414.381 219.5 416.636 218.248 420.905 218.253C520.112 218.371 619.319 218.345 718.526 218.345C720.483 218.345 722.439 218.345 725.627 218.345C722.609 224.579 720.125 229.898 717.482 235.137C705.587 258.718 693.646 282.275 681.731 305.846C681.357 306.586 681.041 307.364 680.791 308.154C679.312 312.829 676.526 314.666 671.255 314.624C637.41 314.358 603.562 314.547 569.715 314.41C565.71 314.394 563.548 315.484 561.734 319.318C545.961 352.668 529.92 385.893 513.963 419.157C495.646 457.342 477.318 495.523 459.028 533.721C453.147 546.002 447.175 558.246 441.647 570.685C439.676 575.118 437.226 576.769 432.272 576.754C372.915 576.58 313.557 576.642 254.199 576.642C252.274 576.642 250.349 576.642 247.034 576.642C272.948 521.363 298.286 467.315 323.798 412.936Z" fill="#C5007A"/>
<path d="M457.19 128.598C475.388 89.9188 493.58 51.6628 511.25 13.1698C513.702 7.82784 516.291 6.23884 521.925 6.24784C625.774 6.41484 729.623 6.37184 833.47 6.37284C835.4 6.37284 837.32 6.37284 840.56 6.37284C837.93 11.3968 835.92 15.3038 833.85 19.1768C814.41 55.5068 794.92 91.8088 775.58 128.188C773.42 132.261 770.94 134.021 765.99 134.012C664.645 133.838 563.296 133.881 461.946 133.881C459.965 133.881 457.984 133.881 455.045 133.881C455.884 131.785 456.452 130.366 457.19 128.598Z" fill="#C4007A"/>
</svg>
