<svg 
  xmlns="http://www.w3.org/2000/svg"  
  width="1023" 
  height="222" 
  viewBox="0 0 10230 2220"
>
  <g fill="#d71920"><g>
  <path d="M0 2081 l0 -139 16 -6 16 -6 1851 0 1852 0 23 6 22 6 0 49 0 49 -51 90 -50 90 -1840 0 -1839 0 0 -139z"></path>
  <path d="M3920 2193 l0 -26 29 -46 c15 -25 46 -80 68 -121 22 -41 85 -156 138 -255 278 -511 345 -637 345 -645 0 -8 -268 -508 -365 -680 -23 -41 -63 -115 -90 -165 -26 -49 -63 -115 -81 -146 l-34 -57 0 -26 0 -26 315 0 315 0 20 38 c65 120 99 181 167 305 l76 138 10 -4 c11 -3 50 -71 151 -262 32 -60 72 -134 88 -163 l30 -52 319 0 319 0 0 20 0 19 -44 73 c-35 59 -244 441 -409 748 -16 30 -52 94 -78 141 -27 48 -49 93 -49 100 0 8 10 30 21 49 21 35 219 395 296 540 92 173 228 417 250 450 l23 35 0 22 0 23 -318 0 -318 0 -89 -162 c-49 -90 -112 -205 -139 -256 l-50 -92 -12 12 c-11 12 -56 92 -169 303 -57 108 -87 158 -103 178 l-15 17 -309 0 -308 0 0 -27z"></path>
  <path d="M5950 2158 c-18 -35 -41 -75 -52 -90 l-18 -26 0 -50 0 -50 23 -6 22 -6 2137 0 2136 0 16 6 16 6 0 139 0 139 -2124 0 -2123 0 -33 -62z"></path>
  <path d="M0 905 l0 -905 270 0 269 0 28 35 28 35 75 147 c42 82 145 282 230 446 l155 298 18 -22 c10 -12 68 -122 129 -243 61 -122 125 -248 143 -281 18 -33 67 -127 110 -210 43 -82 87 -162 99 -177 l21 -27 281 0 282 -1 6 16 6 16 0 877 0 877 -12 12 -12 12 -232 0 -232 0 -16 -6 -16 -6 0 -441 0 -441 -19 19 c-16 17 -181 303 -305 527 -21 37 -50 81 -66 98 l-28 30 -149 0 -149 0 -26 -27 -26 -28 -114 -195 c-63 -107 -134 -230 -159 -273 -76 -135 -84 -147 -91 -147 l-8 0 0 435 0 434 -19 11 -20 10 -225 0 -226 0 0 -905z"></path>
  <path d="M2167 1803 c-4 -3 -7 -23 -7 -42 l0 -36 19 -36 c10 -19 24 -51 30 -70 5 -19 19 -59 30 -89 37 -104 153 -435 167 -475 7 -22 41 -119 74 -215 34 -96 70 -200 80 -230 10 -30 46 -134 80 -230 34 -96 68 -194 75 -216 19 -60 43 -105 73 -136 l26 -28 339 0 339 0 28 30 28 30 25 68 c14 37 44 121 67 187 23 66 68 194 100 285 32 91 79 226 104 300 25 74 57 167 71 205 15 39 30 84 35 100 4 17 25 75 45 130 l38 100 4 62 5 63 -35 57 c-19 32 -45 78 -57 103 -12 25 -32 55 -43 68 l-20 22 -144 0 -143 0 -20 -32 c-11 -18 -22 -46 -26 -63 -11 -52 -74 -237 -85 -252 l-11 -13 -304 0 -304 0 -20 20 -20 20 0 18 c0 9 -16 62 -35 117 -19 55 -35 110 -35 123 l0 22 -20 20 -20 20 -263 0 -264 0 -6 -7z m1178 -743 l6 -9 -14 -28 c-15 -30 -55 -165 -125 -418 l-19 -69 -15 -10 -15 -9 -27 7 -27 7 -3 12 c-2 7 -16 59 -31 117 -30 114 -49 180 -89 307 -14 45 -26 87 -26 93 l0 10 189 0 190 0 6 -10z"></path>
  <path d="M5827 1803 l-7 -6 0 -760 0 -760 41 -76 c23 -42 57 -104 77 -138 l36 -63 193 0 193 0 0 893 0 893 -12 12 -12 12 -251 0 -252 0 -6 -7z"></path>
  <path d="M7155 1801 l-70 -9 -48 -16 c-26 -9 -52 -16 -58 -16 -5 0 -42 -15 -82 -34 l-72 -34 -55 -41 -55 -41 -52 -61 -51 -61 -30 -57 c-17 -31 -40 -83 -51 -116 l-21 -59 -20 -123 -20 -123 0 -113 0 -112 20 -115 19 -115 25 -65 c35 -94 53 -127 108 -202 l49 -67 54 -49 53 -49 79 -41 c43 -22 106 -50 140 -61 l62 -21 318 0 318 0 45 11 45 10 102 49 101 50 62 57 62 57 45 63 46 64 29 72 30 72 24 115 24 115 0 150 0 150 -15 84 c-21 120 -42 196 -72 265 l-27 61 -52 71 -53 70 -61 48 -62 49 -66 32 -67 33 -100 27 -100 28 -215 3 -215 3 -70 -8z m412 -481 c24 -11 62 -33 83 -50 l39 -31 34 -57 35 -57 16 -66 16 -65 0 -85 0 -84 -19 -76 -19 -76 -26 -46 -27 -46 -39 -35 c-21 -19 -50 -42 -64 -51 l-25 -16 -82 -20 -83 -21 -35 7 c-20 4 -58 14 -86 22 l-50 16 -42 29 c-22 15 -57 46 -77 69 l-35 41 -21 46 -22 45 -16 90 -16 89 12 69 c7 38 12 82 12 97 l0 27 26 55 25 55 42 43 42 44 45 23 45 23 55 11 c85 17 91 17 154 9 l58 -8 45 -20z"></path>
  <path d="M8455 1804 l-10 -4 2 -887 c1 -489 2 -894 3 -900 l0 -13 265 0 265 0 40 43 c45 48 491 626 608 789 42 59 80 107 85 108 l7 0 0 -470 0 -470 255 0 255 0 0 899 0 899 -16 6 -16 6 -204 0 -205 0 -32 -14 -32 -14 -41 -43 c-23 -24 -184 -234 -358 -466 l-317 -423 -9 0 -10 0 -2 478 -3 477 -260 2 c-143 1 -264 0 -270 -3z"></path>
  </g></g>
  <g fill="transparent" stroke="transparent" stroke-width="10">
  <g>
  <path d="M0 2204 l0 -16 15 12 c8 7 15 14 15 16 0 2 -7 4 -15 4 l-15 0 0 -16z"></path>
  <path d="M3627 2205 l22 -15 50 -90 51 -90 0 -19 0 -19 -22 -6 -23 -6 -1826 0 -1826 0 -27 21 -26 20 0 -113 0 -113 210 3 209 3 21 -11 20 -11 0 -433 0 -434 24 -6 24 -6 14 5 c13 5 20 15 97 152 25 43 96 166 159 273 l114 195 26 28 26 27 119 0 119 0 28 -30 c16 -17 45 -61 66 -98 20 -37 95 -169 166 -294 l129 -226 19 -17 19 -17 26 6 25 6 0 439 0 439 16 6 16 6 203 0 203 0 11 -14 11 -13 -2 -863 -3 -862 -19 -14 -20 -14 420 0 419 1 -35 15 c-64 28 -104 80 -135 178 -7 22 -41 120 -75 216 -34 96 -70 200 -80 230 -10 30 -46 134 -80 230 -33 96 -67 193 -74 215 -14 40 -130 371 -167 475 -11 30 -25 70 -30 89 -6 18 -20 51 -31 72 l-20 38 7 11 6 10 235 0 234 0 20 -20 20 -20 0 -22 c0 -13 16 -68 35 -123 19 -55 35 -108 35 -117 l0 -18 20 -20 20 -20 334 0 334 0 11 13 c11 15 74 200 85 252 4 17 15 45 26 63 l20 32 113 0 114 0 20 -22 c11 -13 31 -43 43 -68 12 -25 38 -71 57 -103 l35 -58 -5 -32 c-3 -18 -22 -77 -42 -132 -20 -55 -41 -113 -45 -130 -5 -16 -20 -61 -35 -100 -14 -38 -59 -167 -99 -285 -41 -118 -102 -294 -136 -390 -34 -96 -74 -212 -90 -257 -16 -46 -38 -99 -50 -118 l-22 -35 -21 -13 c-12 -6 -35 -17 -52 -24 l-30 -11 288 -1 287 -1 0 11 c0 6 15 37 34 68 18 31 53 92 76 136 24 44 78 143 120 220 43 77 141 258 219 402 l142 263 -112 207 c-61 115 -135 251 -164 303 -29 52 -99 181 -155 285 -56 105 -120 220 -142 258 l-40 67 -166 0 -166 0 21 -15z"></path>
  <path d="M4505 2193 c25 -28 55 -76 123 -203 74 -138 151 -278 163 -298 l14 -22 27 0 27 0 29 53 c16 28 73 133 127 232 54 99 110 199 126 223 l29 42 -346 0 -345 0 26 -27z"></path>
  <path d="M5694 2167 c-32 -53 -174 -310 -247 -447 -34 -64 -219 -402 -310 -568 l-29 -53 68 -122 c37 -67 77 -140 89 -162 12 -22 97 -179 189 -350 93 -171 189 -345 215 -388 l46 -77 164 0 165 0 -30 29 -29 29 -68 125 -67 124 2 734 3 734 224 3 223 2 14 -11 14 -11 0 -873 0 -873 -12 -5 -13 -5 485 0 485 0 -82 14 c-106 18 -188 45 -286 96 l-79 41 -53 49 -54 49 -49 67 c-55 75 -73 108 -108 202 l-25 65 -19 115 -20 115 0 82 0 83 20 123 20 123 21 59 c11 33 34 85 51 116 l30 57 51 61 52 61 55 41 c63 48 159 95 233 116 29 8 70 19 92 26 l40 11 230 0 230 0 100 -28 100 -28 67 -33 66 -32 62 -49 61 -48 53 -70 52 -71 27 -61 c30 -69 51 -145 72 -265 l15 -84 0 -120 0 -120 -24 -115 -24 -115 -30 -72 -29 -72 -46 -64 -45 -63 -62 -57 -62 -57 -101 -50 -102 -49 -90 -20 c-49 -11 -103 -21 -120 -24 -16 -2 190 -5 459 -6 l489 -1 -17 19 -17 19 -2 866 -2 867 20 5 c11 2 119 3 240 2 l220 -3 2 -474 2 -475 15 -15 15 -15 25 12 25 11 316 423 c175 233 336 443 359 467 l41 43 32 14 32 14 181 0 181 0 24 -25 25 -24 0 135 0 135 -26 -20 -27 -21 -2111 0 -2111 0 -22 6 -23 6 0 20 0 20 19 26 c10 15 31 51 45 81 l28 53 25 24 26 24 -164 0 -164 -1 -31 -52z"></path>
  <path d="M10200 2216 c0 -2 7 -9 15 -16 l15 -12 0 16 0 16 -15 0 c-8 0 -15 -2 -15 -4z"></path>
  <path d="M7355 1384 c-11 -2 -45 -9 -75 -15 l-55 -11 -45 -23 -45 -23 -41 -44 -42 -43 -22 -45 -23 -45 -8 -60 c-5 -33 -12 -98 -15 -145 l-6 -85 16 -82 15 -82 21 -44 c27 -57 81 -120 133 -155 l42 -29 55 -17 55 -18 57 -5 57 -6 78 18 c95 22 115 32 175 84 l46 41 27 46 27 47 19 76 19 76 0 116 0 115 -19 71 -18 71 -39 58 -39 58 -49 33 -48 33 -52 15 -51 14 -65 5 c-36 2 -74 3 -85 0z"></path>
  <path d="M2920 1090 l-15 -9 13 -33 c39 -100 152 -488 152 -520 l0 -17 19 -11 20 -10 49 0 50 0 9 13 c5 6 17 41 27 77 48 178 105 370 132 441 l18 47 -13 16 -13 16 -217 0 -216 0 -15 -10z"></path>
  <path d="M977 898 c-73 -138 -323 -623 -373 -722 l-39 -80 -46 -48 -45 -48 584 0 585 0 -38 39 -38 39 -47 89 c-128 245 -226 435 -305 593 -48 96 -98 190 -112 208 l-24 32 -24 0 -24 0 -54 -102z"></path>
  <path d="M9625 898 c-60 -84 -433 -572 -571 -749 l-75 -95 -42 -27 -41 -27 429 0 430 0 -5 487 -5 488 -30 3 -30 3 -60 -83z"></path>
  <path d="M4768 463 c-25 -43 -76 -134 -112 -203 -37 -69 -71 -132 -76 -140 -6 -8 -19 -32 -30 -52 l-20 -37 -22 -15 -22 -16 344 0 344 0 -21 15 -21 15 -35 62 c-33 61 -66 121 -150 278 -22 41 -53 96 -69 123 l-30 47 -17 0 -17 0 -46 -77z"></path>
  <path d="M0 22 l0 -22 16 0 16 0 -13 18 c-7 9 -15 19 -16 21 -2 2 -3 -5 -3 -17z"></path>
  </g></g>
</svg>
