<svg width="969" height="164" viewBox="0 0 969 164" fill="none" xmlns="http://www.w3.org/2000/svg">
<path fill-rule="evenodd" clip-rule="evenodd" d="M0.210007 163.36V0.0400085H173.6V163.36H0.210007Z" fill="#254887"/>
<path fill-rule="evenodd" clip-rule="evenodd" d="M277.34 157.49L213.11 4.35999H259.78L300.71 102.77L341.65 4.35999H387.71L323.71 157.49H277.34Z" fill="#254887"/>
<path fill-rule="evenodd" clip-rule="evenodd" d="M723.06 157.49V46.77H681.46V4.29001H809V46.77H766.29V157.49H723.06Z" fill="#254887"/>
<path fill-rule="evenodd" clip-rule="evenodd" d="M642.75 98.31C660.38 90.74 670.92 72.71 670.92 53.67C670.92 25.23 648.09 4.09 620.06 4.09H542.85V157.49H584.67V93.92L638.67 157.49H693.18L642.75 98.31ZM608.17 76.09H584.67V39L608.17 39.07C620.4 39.07 628.63 44.34 628.63 57.57C628.63 70.8 620.4 76 608.17 76.09Z" fill="#254887"/>
<path fill-rule="evenodd" clip-rule="evenodd" d="M1.77 1.64999L85.79 135.33L171.91 1.73001L1.77 1.64999Z" fill="#FBCA00"/>
<path fill-rule="evenodd" clip-rule="evenodd" d="M478.09 4.16H429.38L365.49 157.55H411L418.78 138H488.62L496.92 157.52H542.65L478.09 4.16ZM433.51 102.23L453.83 54.23L473.69 102.23H433.51Z" fill="#254887"/>
<path fill-rule="evenodd" clip-rule="evenodd" d="M904.42 4.16H855.72L791.82 157.55H837.28L845.05 138.03H915L923.31 157.55H969L904.42 4.16ZM859.77 102.23L880.17 54.23L900.03 102.23H859.77Z" fill="#254887"/>
</svg>
