<svg width="311" height="134" viewBox="0 0 311 134" fill="none" xmlns="http://www.w3.org/2000/svg">
<path d="M94.84 87.54L87.06 94.63V124.34L77.65 133.26H55.59L47.53 128.54L39.53 133.26H17.41L8 124.38V94.63L0.220001 87.54H20.22V123.91H41.7V87.54H53.37V123.91H74.89V87.54H94.84ZM97.76 124.61L106.76 133.22H145.91V124.61H109.17V114.61H145.31V106.29H109.17V96.54H146V87.54H107.63L97.77 96.54L97.76 124.61ZM156.07 114.48H190.91V124.61H156.1V133.26H191.77L201.92 123.26V106.26H166.65V96.54H201.92V87.54H166.51L156.1 97.39L156.07 114.48ZM209.52 96.57H228V133.26H240.36V96.7H259.36V87.54H209.55L209.52 96.57ZM310.25 133.26H298.41L295.81 123.68H271.18L268.42 133.26H256.3L270.18 87.58H303.23L297.75 93.52L310.25 133.26ZM293.41 115.13L288.59 96.62H277.64L272.85 115.13H293.41Z" fill="black"/>
<path d="M245.9 35.35L207 74.23C201.427 65.6344 193.809 58.556 184.828 53.6291C175.847 48.7021 165.783 46.0808 155.54 46H154.45C144.208 46.0825 134.147 48.7046 125.168 53.6314C116.188 58.5582 108.572 65.6358 103 74.23L64.09 35.35L65.3 34.19C65.3 34.19 92.68 60.63 111.54 49.36C123.22 42.42 117.46 33.31 115.84 28.68L117.63 27.58C117.63 27.58 124.68 38.58 137.09 36.67C149.5 34.76 152.92 23.82 153.49 0.73999H156.49C157.03 23.74 160.49 34.81 172.91 36.62C185.33 38.43 192.38 27.53 192.38 27.53L194.18 28.62C192.55 33.26 186.8 42.37 198.47 49.3C217.39 60.57 244.72 34.13 244.72 34.13L245.9 35.35Z" fill="#2CCBFF"/>
</svg>
