<?xml version="1.0" standalone="no"?>
<!DOCTYPE svg PUBLIC "-//W3C//DTD SVG 20010904//EN"
 "http://www.w3.org/TR/2001/REC-SVG-20010904/DTD/svg10.dtd">
<svg version="1.0" xmlns="http://www.w3.org/2000/svg"
 width="300px" height="300px" viewBox="0 0 512.000000 512.000000"
 preserveAspectRatio="xMidYMid meet">

<g transform="translate(0.000000,512.000000) scale(0.100000,-0.100000)"
fill="#000000" stroke="none">
<path d="M1195 4636 c-27 -13 -64 -39 -81 -57 -47 -52 -107 -130 -103 -133 27
-24 160 -126 165 -126 4 0 30 11 59 26 131 64 286 10 351 -121 23 -48 26 -63
21 -122 -3 -38 -8 -77 -12 -89 -5 -16 5 -29 55 -68 l62 -49 54 27 c42 21 70
27 118 27 112 0 188 -47 237 -147 29 -58 31 -70 26 -126 -3 -35 -9 -73 -12
-84 -6 -18 9 -34 93 -100 90 -69 101 -81 106 -116 6 -38 3 -44 -81 -151 -107
-137 -123 -169 -123 -243 0 -108 63 -189 169 -221 67 -19 140 -6 194 35 45 34
560 693 550 703 -5 3 -181 127 -393 274 -212 148 -571 399 -799 558 -228 159
-433 298 -455 308 -58 26 -139 24 -201 -5z m1234 -1562 c43 -36 58 -89 38
-137 -17 -39 -68 -77 -105 -77 -70 0 -122 54 -122 128 0 95 116 148 189 86z"/>
<path d="M801 4257 c-94 -78 -125 -133 -125 -221 0 -42 7 -76 20 -102 40 -81
1139 -1644 1152 -1639 7 3 112 82 233 176 l219 172 -49 17 c-133 45 -231 171
-231 297 l0 43 -49 0 c-45 0 -51 3 -77 38 -15 20 -52 67 -80 103 l-53 66 -56
-14 c-112 -29 -230 23 -289 127 -27 48 -31 65 -31 130 0 63 4 83 27 123 l27
48 -49 63 -50 64 -42 -15 c-88 -31 -214 8 -277 84 -68 82 -79 208 -27 297 l26
44 -63 81 c-34 44 -66 80 -72 81 -5 0 -43 -28 -84 -63z"/>
<path d="M2995 3244 c-126 -163 -231 -301 -233 -308 -1 -6 10 -21 25 -33 15
-11 60 -46 100 -77 l72 -56 232 297 c127 164 235 303 240 308 7 10 -180 165
-198 165 -4 -1 -111 -134 -238 -296z"/>
<path d="M3276 2999 l-157 -200 28 -22 c525 -415 978 -764 1013 -780 162 -74
352 48 354 228 1 46 -5 73 -27 117 -27 55 -46 71 -530 449 -276 215 -507 396
-513 400 -7 6 -65 -60 -168 -192z"/>
<path d="M2095 2344 c-165 -130 -299 -240 -297 -246 1 -5 36 -52 78 -104 67
-84 77 -93 93 -82 98 71 591 463 589 469 -5 15 -150 199 -157 199 -3 -1 -141
-107 -306 -236z"/>
<path d="M2335 2059 c-104 -82 -191 -153 -193 -157 -1 -4 175 -234 392 -512
451 -576 440 -565 571 -565 101 1 179 48 228 140 29 55 30 164 1 218 -27 51
-786 1026 -799 1026 -5 0 -95 -67 -200 -150z"/>
</g>
</svg>
