<svg width="2659" height="1681" viewBox="0 0 2659 1681" fill="none" xmlns="http://www.w3.org/2000/svg">
<path d="M0.865829 1189.71C0.640938 1186.07 0.21936 1182.42 0.219093 1178.78C0.190292 790.188 0.193069 401.601 0.194023 13.0143C0.194031 9.36611 0.194023 5.71794 0.194023 1.32066C3.16515 1.00427 5.69355 0.546701 8.2292 0.50213C14.5593 0.390863 20.8926 0.468142 27.2246 0.468134C900.379 0.467875 1773.53 0.467187 2646.69 0.478105C2650.01 0.478143 2653.34 0.64541 2656.64 2.03558C2656.4 7.30762 2656.03 11.2787 2656.03 15.2497C2656 265.125 2656 515.001 2656 764.877C2656 901.809 2656.02 1038.74 2655.92 1175.67C2655.92 1180.57 2654.77 1185.47 2654.14 1190.28C2654.13 1190.19 2654.31 1190.25 2653.63 1190.21C2652.03 1190.99 2651.11 1191.81 2649.77 1193.15C2648.22 1194.36 2647.1 1195.1 2645.93 1195.74C2520.45 1264 2390.55 1322.38 2256.01 1370.48C2119.62 1419.24 1980.24 1456.9 1837.9 1483.52C1754.06 1499.2 1669.64 1510.83 1584.67 1518.62C1520.61 1524.5 1456.44 1528.61 1392.14 1529.54C1340.19 1530.3 1288.19 1529.46 1236.23 1528.47C1175.25 1527.32 1114.47 1522.6 1053.78 1516.6C989.124 1510.2 924.812 1501.43 860.764 1490.53C759.874 1473.35 660.315 1450.41 562.036 1421.94C382.577 1369.93 210.253 1300.25 45.0999 1212.85C30.3919 1205.07 15.6122 1197.42 0.865829 1189.71ZM1276.09 976.088C1276.09 976.088 1276.68 976.689 1276.49 978.101C1269.8 991.356 1263.11 1004.61 1255.96 1018.8C1321.42 1018.8 1385.54 1018.8 1450.11 1018.8C1460.1 994.245 1469.99 969.942 1479.94 945.493C1552.4 945.493 1624.28 945.493 1696.61 945.493C1706.91 970.203 1717.11 994.663 1727.13 1018.72C1842.09 1018.72 1955.91 1018.72 2070.8 1018.72C2070.8 936.892 2070.8 855.832 2070.8 772.328C2074.97 776.753 2077.43 779.339 2079.87 781.947C2151.75 858.922 2223.67 935.87 2295.44 1012.95C2299.61 1017.42 2303.76 1019.55 2310.07 1019.52C2363.74 1019.26 2417.4 1019.38 2471.07 1019.35C2473.99 1019.35 2476.9 1019.05 2480.08 1018.87C2480.08 868.673 2480.08 719.194 2480.08 569.818C2466.87 567.748 2309 568.373 2301.62 570.604C2301.62 584.048 2301.62 597.688 2301.62 611.328C2301.62 624.994 2301.62 638.66 2301.62 652.326C2301.62 665.993 2301.62 679.659 2301.62 693.325C2301.62 706.992 2301.62 720.658 2301.62 734.324C2301.62 747.99 2301.64 761.657 2301.62 775.323C2301.59 788.739 2301.52 802.155 2301.47 815.572C2300.44 816.095 2299.41 816.619 2298.39 817.142C2297.18 815.129 2296.28 812.828 2294.72 811.146C2221.66 732.532 2148.5 654.003 2075.51 575.325C2071.36 570.846 2067.35 568.565 2060.99 568.596C2007.66 568.862 1954.32 568.74 1900.99 568.77C1898.09 568.772 1895.19 569.094 1891.46 569.316C1891.46 695.48 1891.46 820.897 1891.46 946.315C1888.22 944.07 1886.6 941.367 1885.16 938.568C1823.3 818.328 1761.4 698.113 1699.79 577.747C1696.22 570.763 1692.22 568.511 1684.47 568.554C1622.48 568.901 1560.48 568.893 1498.48 568.569C1490.5 568.527 1486.16 570.733 1482.39 578.102C1434.79 671.223 1386.81 764.152 1338.92 857.122C1337.29 860.271 1335.5 863.331 1333.57 866.82C1332.73 865.588 1332.2 865.155 1332.15 864.677C1329.2 832.144 1313.51 806.835 1288.03 787.185C1268.55 772.165 1246.51 761.93 1223.38 754.11C1174.62 737.632 1124.05 729.014 1073.56 720.106C1051.6 716.232 1029.6 712.499 1007.82 707.788C999.861 706.066 991.852 702.684 984.946 698.338C968.956 688.276 968.348 672.817 982.672 660.329C990.14 653.819 998.983 649.928 1008.6 648.116C1031.8 643.747 1055.03 643.922 1078.04 649.223C1105.59 655.571 1124.42 671.615 1132.09 699.505C1132.35 700.441 1132.89 701.298 1133.44 702.518C1192.51 702.518 1251.61 702.518 1310.33 702.518C1310.88 701.514 1311.22 701.188 1311.17 700.933C1300.91 645.537 1272.57 604.625 1218.22 584.243C1180.99 570.279 1142.16 564.519 1102.82 562.566C1053.52 560.119 1004.21 560.607 955.208 567.994C918.292 573.558 883.145 584.155 851.294 604.254C849.771 605.215 847.787 605.444 846.001 606.001C846.001 606.001 845.994 605.995 845.7 604.422C848.973 592.419 852.245 580.415 855.622 568.031C685.65 568.031 516.825 568.031 347.417 568.031C303.78 718.232 260.276 867.971 216.514 1018.6C389.948 1018.6 561.74 1018.6 734.258 1018.6C744.157 984.546 753.923 950.945 764.021 916.207C654.088 916.207 545.871 916.207 436.613 916.207C445.253 886.237 453.615 857.229 462.192 827.476C560.953 827.476 659.137 827.476 757.588 827.476C766.557 796.693 775.285 766.738 784.346 735.64C685.662 735.64 588.122 735.64 488.967 735.64C496.132 710.927 502.929 687.481 509.683 664.186C607.295 664.186 703.855 664.186 800.401 664.186C799.042 673.182 796.878 681.677 796.623 690.23C795.657 722.593 809.7 748.012 834.221 768.238C857.262 787.242 884.283 798.446 912.238 807.663C956.342 822.205 1002.02 829.739 1047.55 838.086C1069.09 842.035 1090.27 848.091 1111.47 853.727C1120.89 856.231 1129.14 861.413 1136.17 868.345C1151.69 883.649 1151.34 902.522 1135.08 917.216C1125.75 925.651 1114.73 930.981 1102.57 934.038C1081.93 939.23 1061.01 939.376 1040.02 937.139C1026.71 935.72 1013.85 932.394 1001.65 926.686C979.208 916.189 964.316 899.301 957.719 875.288C956.586 871.164 955.388 867.057 954.193 862.846C893.952 862.846 834.153 862.846 773.092 862.846C774.582 871.493 775.309 879.468 777.37 887.082C793.371 946.207 830.304 986.013 888.388 1005.71C927.538 1018.98 968.262 1023.61 1009.26 1025.6C1048.21 1027.49 1087.22 1027.7 1126.12 1023.9C1160.05 1020.59 1193.31 1014.32 1225.28 1001.97C1243.08 995.091 1259.31 985.375 1276.09 976.088ZM1221.41 1239C1221.41 1273.93 1221.41 1308.87 1221.41 1344.49C1245.17 1344.49 1267.95 1344.49 1290.39 1344.49C1291.02 1343.23 1291.55 1342.65 1291.56 1342.07C1291.7 1335.41 1291.73 1328.75 1291.86 1322.09C1292.33 1299.52 1288.56 1307.08 1306.45 1292.78C1313.38 1287.24 1320.6 1282.03 1328.32 1276.2C1331.13 1279.98 1333.34 1282.81 1335.4 1285.76C1347.6 1303.25 1359.88 1320.69 1371.85 1338.34C1375.17 1343.23 1378.95 1345.39 1385 1345.31C1408.33 1345.01 1431.66 1345.21 1454.98 1345.14C1457.11 1345.13 1459.23 1344.51 1462.85 1343.94C1433.78 1308.86 1405.61 1274.88 1376.81 1240.14C1404.23 1219.12 1430.72 1198.83 1457.2 1178.53C1454.85 1176.5 1453.33 1176.26 1451.82 1176.26C1425.49 1176.24 1399.16 1176.4 1372.84 1176.12C1367.25 1176.06 1363.45 1178.43 1359.57 1181.79C1339.92 1198.8 1320.19 1215.72 1300.46 1232.63C1298.3 1234.48 1295.92 1236.06 1291.72 1239.2C1291.72 1217.11 1291.72 1197.08 1291.72 1176.82C1267.78 1176.82 1245.28 1176.82 1221.41 1176.82C1221.41 1197.24 1221.41 1217.12 1221.41 1239ZM1091.48 1313.43C1068.18 1267.79 1044.88 1222.15 1021.61 1176.57C995.579 1176.57 970.318 1176.57 944.32 1176.57C915.965 1232.07 887.586 1287.61 859.485 1342.61C860.756 1344.08 860.968 1344.54 861.184 1344.54C882.808 1344.76 904.433 1344.94 926.057 1345.15C929.65 1345.19 931.383 1343.19 932.539 1340.07C934.389 1335.08 936.791 1330.27 938.353 1325.19C940.221 1319.12 943.841 1317.1 950.137 1317.23C967.449 1317.6 984.776 1317.3 1002.1 1317.4C1008.39 1317.44 1016.23 1315.68 1020.55 1318.73C1025.25 1322.05 1026.66 1330.01 1029.5 1335.95C1029.79 1336.55 1030.08 1337.17 1030.24 1337.81C1031.67 1343.61 1035.31 1345.42 1041.25 1345.32C1060.56 1344.99 1079.88 1345.22 1099.2 1345.15C1101.37 1345.14 1103.53 1344.52 1106.95 1343.98C1101.69 1333.62 1096.91 1324.2 1091.48 1313.43ZM1651.99 1266.87C1651.99 1251.98 1651.99 1237.1 1651.99 1220.85C1628.03 1221.19 1605.29 1220.32 1582.2 1221.42C1582.2 1243.75 1581.01 1265.08 1582.57 1286.21C1583.9 1304.15 1593.2 1318.8 1608.5 1329.28C1618.55 1336.17 1629.33 1341.4 1641.24 1343.46C1671.59 1348.72 1702.12 1349.94 1732.69 1345.35C1749.46 1342.84 1764.77 1336.65 1777.98 1325.8C1790.65 1315.39 1798.9 1302.11 1799.85 1285.74C1801 1265.82 1800.59 1245.82 1800.79 1225.86C1800.8 1224.61 1800.2 1223.36 1799.75 1221.58C1776.76 1221.58 1754 1221.58 1730.07 1221.58C1730.07 1225.49 1730.07 1228.73 1730.07 1231.96C1730.06 1247.61 1730.21 1263.26 1730.01 1278.91C1729.84 1292.36 1723.81 1300.96 1711.14 1305.31C1697.83 1309.89 1684.23 1309.91 1670.93 1305.31C1658.38 1300.97 1652.46 1292.25 1652.03 1278.81C1651.92 1275.48 1652 1272.15 1651.99 1266.87ZM1778.92 1159.56C1763.09 1159.56 1747.26 1159.56 1731.2 1159.56C1731.2 1173.78 1731.2 1186.5 1731.2 1199.53C1754.54 1199.53 1777.05 1199.53 1800.28 1199.53C1800.28 1186.27 1800.28 1173.49 1800.28 1159.56C1793.38 1159.56 1787.14 1159.56 1778.92 1159.56ZM1582.26 1198.27C1584.08 1198.85 1585.89 1199.93 1587.7 1199.94C1607.28 1200.06 1626.85 1200.03 1646.43 1199.95C1647.96 1199.95 1649.49 1199.3 1651.67 1198.8C1651.54 1185.67 1652.13 1172.95 1651.36 1160.24C1627.53 1160.24 1605.13 1160.24 1581.72 1160.24C1581.72 1172.75 1581.72 1184.6 1582.26 1198.27Z" fill="#205DA6"/>
<path d="M0.702717 1190.65C15.6122 1197.42 30.3918 1205.07 45.0999 1212.85C210.252 1300.25 382.577 1369.93 562.036 1421.94C660.315 1450.41 759.874 1473.35 860.764 1490.53C924.812 1501.43 989.124 1510.2 1053.78 1516.6C1114.47 1522.6 1175.25 1527.32 1236.23 1528.47C1288.19 1529.46 1340.19 1530.3 1392.14 1529.54C1456.44 1528.61 1520.61 1524.5 1584.67 1518.62C1669.64 1510.83 1754.06 1499.2 1837.9 1483.52C1980.24 1456.9 2119.62 1419.24 2256.01 1370.48C2390.55 1322.38 2520.45 1264 2645.93 1195.74C2647.1 1195.1 2648.22 1194.36 2650.4 1193.08C2652.39 1191.74 2653.35 1190.99 2654.31 1190.25C2654.31 1190.25 2654.13 1190.19 2654.73 1190.31C2656.11 1190.3 2656.89 1190.18 2657.67 1190.06C2657.92 1193.37 2658.38 1196.68 2658.38 1199.99C2658.43 1249.66 2658.19 1299.32 2658.64 1348.98C2658.71 1357.03 2655.76 1360.81 2649.07 1364.2C2541.69 1418.69 2431.53 1466.75 2318.29 1507.73C2220.79 1543.02 2121.67 1572.95 2020.96 1597.58C1951.72 1614.52 1882.02 1629.38 1811.55 1640.25C1761.87 1647.91 1712.12 1655.3 1662.23 1661.36C1622.58 1666.17 1582.68 1669.03 1542.85 1672.29C1450.43 1679.86 1357.81 1681.81 1265.16 1679.56C1216.23 1678.37 1167.32 1675.38 1118.45 1672.34C1084.23 1670.22 1050.02 1667.31 1015.94 1663.54C976.566 1659.17 937.305 1653.75 898.064 1648.29C838.013 1639.95 778.441 1628.82 719.163 1616.15C598.825 1590.42 480.618 1557.08 364.544 1516.21C273.345 1484.1 183.861 1447.78 96.5256 1406.26C66.7361 1392.1 37.2963 1377.2 7.6088 1362.82C2.63874 1360.42 0.0564461 1357.72 0.0896721 1351.58C0.372867 1299.25 0.269382 1246.92 0.294712 1194.58C0.295192 1193.59 0.454457 1192.59 0.702717 1190.65Z" fill="#F1CA14"/>
<path d="M2657.91 1189.14C2656.89 1190.18 2656.11 1190.3 2654.74 1190.4C2654.77 1185.47 2655.92 1180.57 2655.92 1175.67C2656.02 1038.74 2656 901.809 2656 764.877C2656 515.001 2656 265.125 2656.03 15.2497C2656.03 11.2787 2656.4 7.30764 2657.12 2.69305C2657.9 6.00645 2658.39 9.96335 2658.39 13.9203C2658.43 401.693 2658.42 789.466 2658.41 1177.24C2658.41 1180.9 2658.24 1184.56 2657.91 1189.14Z" fill="#24588F"/>
<path d="M846.018 606.014C847.787 605.444 849.771 605.215 851.294 604.254C883.145 584.155 918.292 573.558 955.208 567.994C1004.21 560.607 1053.52 560.119 1102.82 562.566C1142.16 564.519 1180.99 570.279 1218.22 584.243C1272.57 604.625 1300.91 645.537 1311.17 700.933C1311.22 701.188 1310.88 701.514 1310.33 702.518C1251.61 702.518 1192.51 702.518 1133.44 702.518C1132.89 701.298 1132.35 700.441 1132.09 699.505C1124.42 671.615 1105.59 655.571 1078.04 649.223C1055.03 643.922 1031.8 643.747 1008.6 648.116C998.983 649.928 990.14 653.819 982.672 660.329C968.348 672.817 968.956 688.276 984.946 698.338C991.852 702.684 999.861 706.066 1007.82 707.788C1029.6 712.499 1051.6 716.232 1073.56 720.106C1124.05 729.014 1174.62 737.632 1223.38 754.11C1246.51 761.93 1268.55 772.165 1288.03 787.185C1313.51 806.835 1329.2 832.144 1332.15 864.677C1332.2 865.155 1332.73 865.588 1333.57 866.82C1335.5 863.331 1337.29 860.271 1338.92 857.122C1386.81 764.152 1434.79 671.223 1482.39 578.102C1486.16 570.733 1490.5 568.527 1498.48 568.569C1560.48 568.893 1622.48 568.901 1684.47 568.554C1692.22 568.511 1696.22 570.763 1699.79 577.747C1761.4 698.113 1823.3 818.328 1885.16 938.568C1886.6 941.367 1888.22 944.07 1891.46 946.315C1891.46 820.897 1891.46 695.48 1891.46 569.316C1895.19 569.094 1898.09 568.772 1900.99 568.77C1954.32 568.74 2007.66 568.862 2060.99 568.597C2067.35 568.565 2071.36 570.846 2075.51 575.325C2148.5 654.003 2221.66 732.532 2294.72 811.146C2296.28 812.828 2297.18 815.129 2298.39 817.142C2299.41 816.619 2300.44 816.095 2301.47 815.572C2301.52 802.155 2301.59 788.739 2301.62 775.323C2301.64 761.657 2301.62 747.99 2301.62 734.324C2301.62 720.658 2301.62 706.992 2301.62 693.325C2301.62 679.659 2301.62 665.993 2301.62 652.326C2301.62 638.66 2301.62 624.994 2301.62 611.328C2301.62 597.688 2301.62 584.048 2301.62 570.604C2309 568.373 2466.87 567.748 2480.08 569.818C2480.08 719.194 2480.08 868.673 2480.08 1018.87C2476.9 1019.05 2473.99 1019.35 2471.07 1019.35C2417.4 1019.38 2363.74 1019.26 2310.07 1019.52C2303.76 1019.55 2299.61 1017.42 2295.44 1012.95C2223.67 935.87 2151.75 858.922 2079.87 781.947C2077.43 779.339 2074.97 776.753 2070.8 772.328C2070.8 855.832 2070.8 936.892 2070.8 1018.72C1955.91 1018.72 1842.09 1018.72 1727.13 1018.72C1717.11 994.663 1706.91 970.203 1696.61 945.493C1624.28 945.493 1552.4 945.493 1479.94 945.493C1469.99 969.942 1460.1 994.245 1450.11 1018.8C1385.54 1018.8 1321.42 1018.8 1255.96 1018.8C1263.11 1004.61 1269.8 991.356 1277.01 977.046C1277.47 975.476 1277.41 974.961 1277.36 974.447C1276.73 974.794 1276.11 975.141 1275.49 975.489C1259.31 985.375 1243.08 995.091 1225.28 1001.97C1193.31 1014.32 1160.05 1020.59 1126.12 1023.9C1087.22 1027.7 1048.21 1027.49 1009.26 1025.6C968.262 1023.61 927.538 1018.98 888.388 1005.71C830.304 986.013 793.371 946.207 777.37 887.082C775.309 879.468 774.582 871.493 773.092 862.846C834.153 862.846 893.952 862.846 954.193 862.846C955.388 867.057 956.586 871.164 957.719 875.288C964.316 899.301 979.208 916.189 1001.65 926.686C1013.85 932.394 1026.71 935.72 1040.02 937.139C1061.01 939.376 1081.93 939.23 1102.57 934.038C1114.73 930.981 1125.75 925.651 1135.08 917.216C1151.34 902.522 1151.69 883.649 1136.17 868.345C1129.14 861.413 1120.89 856.231 1111.47 853.727C1090.27 848.091 1069.09 842.035 1047.55 838.086C1002.02 829.739 956.342 822.205 912.238 807.663C884.283 798.446 857.262 787.242 834.221 768.238C809.7 748.012 795.657 722.593 796.623 690.23C796.878 681.677 799.042 673.182 800.401 664.186C703.855 664.186 607.295 664.186 509.683 664.186C502.929 687.481 496.132 710.927 488.967 735.64C588.122 735.64 685.662 735.64 784.346 735.64C775.285 766.738 766.557 796.693 757.588 827.476C659.137 827.476 560.953 827.476 462.192 827.476C453.615 857.229 445.253 886.237 436.613 916.207C545.871 916.207 654.088 916.207 764.021 916.207C753.923 950.945 744.157 984.546 734.258 1018.6C561.74 1018.6 389.948 1018.6 216.514 1018.6C260.276 867.971 303.78 718.232 347.417 568.031C516.825 568.031 685.65 568.031 855.622 568.031C852.245 580.415 848.973 592.419 845.443 605.307C845.342 606.558 845.499 606.925 845.657 607.291C845.777 606.865 845.897 606.44 846.018 606.014ZM1651.82 847.794C1653.09 846.806 1655.48 845.717 1655.4 844.85C1655.21 842.63 1653.95 840.493 1653.04 838.35C1633.15 791.104 1613.26 743.858 1593.34 696.623C1592.11 693.698 1590.67 690.859 1588.49 686.179C1565.8 740.856 1543.82 793.82 1521.42 847.805C1565.44 847.805 1607.74 847.805 1651.82 847.794Z" fill="#FEFEFE"/>
<path d="M1221.41 1238C1221.41 1217.12 1221.41 1197.24 1221.41 1176.82C1245.28 1176.82 1267.78 1176.82 1291.72 1176.82C1291.72 1197.08 1291.72 1217.11 1291.72 1239.2C1295.92 1236.06 1298.3 1234.48 1300.46 1232.63C1320.19 1215.72 1339.92 1198.8 1359.57 1181.79C1363.45 1178.43 1367.25 1176.06 1372.84 1176.12C1399.16 1176.4 1425.49 1176.24 1451.82 1176.26C1453.33 1176.26 1454.85 1176.5 1457.2 1178.53C1430.72 1198.83 1404.23 1219.12 1376.81 1240.14C1405.61 1274.88 1433.78 1308.86 1462.85 1343.94C1459.23 1344.51 1457.11 1345.13 1454.98 1345.14C1431.66 1345.21 1408.33 1345.01 1385 1345.31C1378.95 1345.39 1375.17 1343.23 1371.85 1338.34C1359.88 1320.69 1347.6 1303.25 1335.4 1285.76C1333.34 1282.81 1331.13 1279.98 1328.32 1276.2C1320.6 1282.03 1313.38 1287.24 1306.45 1292.78C1288.56 1307.08 1292.33 1299.52 1291.86 1322.09C1291.73 1328.75 1291.7 1335.41 1291.56 1342.07C1291.55 1342.65 1291.02 1343.23 1290.39 1344.49C1267.95 1344.49 1245.17 1344.49 1221.41 1344.49C1221.41 1308.87 1221.41 1273.93 1221.41 1238Z" fill="#EFC916"/>
<path d="M1091.8 1314.1C1096.91 1324.2 1101.69 1333.62 1106.95 1343.98C1103.53 1344.52 1101.37 1345.14 1099.2 1345.15C1079.88 1345.22 1060.56 1344.99 1041.25 1345.32C1035.31 1345.42 1031.67 1343.61 1030.24 1337.81C1030.08 1337.17 1029.79 1336.55 1029.5 1335.95C1026.66 1330.01 1025.25 1322.05 1020.55 1318.73C1016.23 1315.68 1008.39 1317.44 1002.1 1317.4C984.776 1317.3 967.449 1317.6 950.137 1317.23C943.841 1317.1 940.221 1319.12 938.353 1325.19C936.791 1330.27 934.389 1335.08 932.539 1340.07C931.383 1343.19 929.65 1345.19 926.057 1345.15C904.433 1344.94 882.808 1344.76 861.184 1344.54C860.968 1344.54 860.756 1344.08 859.485 1342.61C887.586 1287.61 915.965 1232.07 944.32 1176.57C970.318 1176.57 995.579 1176.57 1021.61 1176.57C1044.88 1222.15 1068.18 1267.79 1091.8 1314.1ZM988.798 1236.21C986.906 1231.77 985.014 1227.34 982.178 1220.68C973.025 1241.57 965.329 1260.32 957.562 1279.93C974.562 1279.93 989.981 1279.93 1006.93 1279.93C1000.78 1265.06 995.104 1251.32 988.798 1236.21Z" fill="#EEC917"/>
<path d="M1652 1267.85C1652 1272.15 1651.92 1275.48 1652.03 1278.81C1652.46 1292.25 1658.38 1300.97 1670.93 1305.31C1684.23 1309.91 1697.83 1309.89 1711.14 1305.31C1723.81 1300.96 1729.84 1292.36 1730.01 1278.91C1730.21 1263.26 1730.06 1247.61 1730.07 1231.96C1730.07 1228.73 1730.07 1225.49 1730.07 1221.58C1754 1221.58 1776.76 1221.58 1799.75 1221.58C1800.2 1223.36 1800.8 1224.61 1800.79 1225.86C1800.59 1245.82 1801 1265.82 1799.85 1285.74C1798.9 1302.11 1790.65 1315.39 1777.98 1325.8C1764.77 1336.65 1749.46 1342.84 1732.69 1345.35C1702.12 1349.94 1671.59 1348.72 1641.24 1343.46C1629.33 1341.4 1618.55 1336.17 1608.5 1329.28C1593.2 1318.8 1583.9 1304.15 1582.57 1286.21C1581.01 1265.08 1582.2 1243.75 1582.2 1221.42C1605.29 1220.32 1628.03 1221.19 1651.99 1220.85C1651.99 1237.1 1651.99 1251.98 1652 1267.85Z" fill="#EFCA17"/>
<path d="M1779.91 1159.56C1787.14 1159.56 1793.38 1159.56 1800.28 1159.56C1800.28 1173.49 1800.28 1186.27 1800.28 1199.53C1777.05 1199.53 1754.54 1199.53 1731.2 1199.53C1731.2 1186.5 1731.2 1173.78 1731.2 1159.56C1747.26 1159.56 1763.09 1159.56 1779.91 1159.56Z" fill="#EDC91B"/>
<path d="M1581.99 1197.36C1581.72 1184.6 1581.72 1172.75 1581.72 1160.24C1605.13 1160.24 1627.53 1160.24 1651.36 1160.24C1652.13 1172.95 1651.54 1185.67 1651.67 1198.8C1649.49 1199.3 1647.96 1199.95 1646.43 1199.95C1626.85 1200.03 1607.28 1200.06 1587.7 1199.94C1585.89 1199.93 1584.08 1198.85 1581.99 1197.36Z" fill="#EDC91B"/>
<path d="M2653.63 1190.21C2653.35 1190.99 2652.39 1191.74 2650.81 1192.56C2651.1 1191.81 2652.03 1190.99 2653.63 1190.21Z" fill="#24588F"/>
<path d="M1650.93 847.799C1607.74 847.805 1565.44 847.805 1521.42 847.805C1543.82 793.82 1565.8 740.856 1588.49 686.179C1590.67 690.859 1592.11 693.698 1593.34 696.623C1613.26 743.858 1633.15 791.104 1653.04 838.35C1653.95 840.493 1655.21 842.63 1655.4 844.85C1655.48 845.717 1653.09 846.806 1650.93 847.799Z" fill="#235FA5"/>
<path d="M846.009 606.007C845.897 606.44 845.777 606.865 845.657 607.291C845.499 606.925 845.342 606.558 845.59 606.094C845.994 605.995 846.001 606.001 846.009 606.007Z" fill="#205DA6"/>
<path d="M1275.79 975.788C1276.11 975.141 1276.73 974.794 1277.36 974.447C1277.41 974.961 1277.47 975.476 1277.11 976.34C1276.68 976.689 1276.09 976.088 1275.79 975.788Z" fill="#205DA6"/>
<path d="M989.111 1236.9C995.104 1251.32 1000.78 1265.06 1006.93 1279.93C989.981 1279.93 974.562 1279.93 957.562 1279.93C965.329 1260.32 973.025 1241.57 982.178 1220.68C985.014 1227.34 986.906 1231.77 989.111 1236.9Z" fill="#275F99"/>
</svg>
