<svg width="1092" height="583" viewBox="0 0 1092 583" fill="none" xmlns="http://www.w3.org/2000/svg"><path d="M744.631 421.384h-62.556c2.531-5.019 4.513-9.143 6.664-13.178 7.172-13.451 14.406-26.868 21.613-40.3 7.391-13.778 14.837-27.528 22.15-41.348 7.741-14.625 15.287-29.353 23.042-43.971 7.306-13.769 14.806-27.433 22.156-41.179 16.29-30.461 32.54-60.937 48.78-91.42 17.09-32.077 34.14-64.176 51.23-96.25 3.43-6.435 7.22-12.688 10.39-19.243 1.63-3.365 3.91-3.838 7.17-3.83 34.02.08 68.04.05 102.06.05l88.05-.002h5.54c0 31.807-.08 62.887.01 93.967.29 96.544.64 193.088.96 289.632.02 7.066 0 7.072-6.97 7.071-36.85-.008-73.71-.087-110.56.064-4.32.017-5.79-1.005-5.67-5.533.56-20.945.72-41.9 1.13-62.849.17-8.537.29-8.535-8.3-8.536-30.85 0-61.71.084-92.56-.091-4.59-.027-6.73 1.614-8.47 5.808-7.34 17.758-15.11 35.342-22.67 53.012-1.81 4.249-3.69 8.503-5.05 12.906-1.15 3.734-3.02 5.316-7.09 5.294-26.85-.145-53.7-.074-81.049-.074zM968.81 235.943V117.372c-.31-.179-.61-.358-.92-.537-21.46 41.568-42.93 83.136-64.76 125.406 2.78.139 4.26.276 5.73.277 18.18.014 36.36-.142 54.54.115 4.57.065 6.08-1.486 5.41-6.69zm-608.319 38.764c-5.872 12.395-11.672 24.407-17.386 36.46-13.362 28.184-26.675 56.392-40.026 84.582a2168.474 2168.474 0 01-10.138 21.078c-.251.515-.897.839-2.143 1.95-.2-2.338-.423-3.871-.45-5.407-.367-21.111-.8-42.221-.969-63.334-.031-3.844-1.372-4.723-4.971-4.712-34.51.115-69.02.11-103.53.007-3.176-.009-4.711.955-5.806 4.006-5.877 16.374-11.942 32.682-18.044 48.974-2.432 6.493-5.258 12.84-7.644 19.349-1.147 3.131-3.239 3.769-6.19 3.754-13.837-.07-27.676-.03-41.514-.03H.073c.845-2.099 1.262-3.48 1.926-4.731 11.28-21.264 22.615-42.498 33.887-63.766 12.444-23.48 24.783-47.016 37.268-70.474 10.07-18.919 20.307-37.75 30.439-56.637 13.879-25.871 27.808-51.717 41.559-77.657 7.056-13.31 13.63-26.876 20.679-40.19 7.3-13.789 14.956-27.39 22.37-41.119 5.91-10.944 11.572-22.025 17.661-32.867.889-1.583 3.543-3.091 5.383-3.096 64.188-.158 128.377-.112 192.565-.19 3.405-.004 4.668.938 4.661 4.502-.095 45.276.013 90.553-.204 135.829-.016 3.448-1.731 7.058-3.27 10.303-14.723 31.053-29.578 62.043-44.506 93.416zm-81.634-145.074l-58.022 112.131c1.588.412 2.206.712 2.824.713 19.672.033 39.345-.025 59.016.097 3.878.024 3.684-2.267 3.703-4.9.275-38.088.589-76.175.861-114.263.013-1.856-.277-3.715-.426-5.572l-1.687-.477a1921.325 1921.325 0 00-6.269 12.271z" fill="#B5BBBF"/><path d="M836.25 27.703c6.33.06 12.66.117 18.99.18 3.78.038 5.29.886 2.97 5.044-8.9 15.949-17.54 32.044-26.18 48.14-7.02 13.095-13.86 26.291-20.86 39.4-7.07 13.249-14.34 26.399-21.32 39.697-1.77 3.392-4.45 3.388-7.54 3.387-74.144-.027-148.29-.019-222.435-.018h-97.711c2.587-5.738 4.686-10.215 6.623-14.761 1.088-2.557 1.907-5.228 3.276-8.391 69.525-.568 138.621-.597 207.716-.616 30.47-.009 60.94.057 91.411-.11 2.1-.011 5.27-1.098 6.13-2.673 12.42-22.665 24.49-45.517 36.7-68.288 7.35-13.696 14.82-27.33 22.23-40.991z" fill="#B4BABE"/><path d="M520.4 420.348c-7.894 16.297-15.837 32.57-23.671 48.896a53152.661 53152.661 0 00-52.324 109.334c-1.335 2.799-2.827 4.318-6.331 4.312-65.359-.116-130.718-.084-196.077-.099-1.134 0-2.268-.187-4.254-.361 3.15-6.855 6.057-13.29 9.054-19.683 29.648-63.223 59.308-126.439 88.968-189.656 24.367-51.934 48.764-103.854 73.046-155.828 1.579-3.38 3.259-4.986 7.362-4.98 104.875.135 209.75.107 314.626.107h4.542c-4.638 9.519-8.972 18.414-13.637 27.843-12.695 25.186-25.147 49.793-37.337 74.529-2.019 4.096-4.297 5.716-9.056 5.683-33.808-.238-67.619-.042-101.428-.228-4.486-.025-6.872 1.37-8.779 5.438-10.89 23.233-22.072 46.329-33.087 69.504-3.969 8.35-7.75 16.79-11.617 25.189zm-196.776-7.08l-76.59 163.374h7.165c59.358 0 118.716-.062 178.073.112 4.954.015 7.404-1.636 9.375-6.069 5.528-12.439 11.5-24.683 17.381-36.964 18.29-38.198 36.618-76.379 54.935-114.564 15.957-33.264 31.998-66.489 47.771-99.839 1.814-3.834 3.976-4.924 7.981-4.908 33.846.137 67.695-.052 101.54.214 5.271.042 8.056-1.795 9.536-6.47.25-.79.566-1.568.94-2.308 11.915-23.571 23.856-47.128 35.751-70.709 2.643-5.239 5.127-10.558 8.145-16.792h-7.101c-99.207 0-198.414.026-297.621-.091-4.269-.006-6.524 1.246-8.341 5.188-12.59 27.312-25.421 54.513-38.19 81.742a115055.49 115055.49 0 01-50.75 108.084z" fill="#301321"/><path d="M520.875 420.336c3.392-8.387 7.173-16.827 11.142-25.177 11.015-23.175 22.197-46.271 33.087-69.504 1.907-4.068 4.293-5.463 8.779-5.438 33.809.186 67.62-.01 101.428.228 4.759.033 7.037-1.587 9.056-5.683 12.19-24.736 24.642-49.343 37.299-74.134 7.591-.14 14.888-.14 23.12-.14-3.516 7.537-6.528 14.293-9.793 20.926-5.466 11.106-11.092 22.135-16.652 33.195-5.207 10.357-10.426 20.708-15.617 31.072-1.986 3.966-4.081 7.89-5.811 11.967-1.663 3.92-3.886 5.886-8.605 5.857-34.508-.211-69.017-.106-103.526-.156-2.797-.004-4.934.179-6.483 3.233-5.908 11.648-12.17 23.117-18.27 34.668-6.47 12.25-12.854 24.546-19.448 36.728-.598 1.105-2.426 2.103-3.734 2.172-5.155.27-10.33.149-15.972.186z" fill="#B4BABE"/><path d="M836.34 27.358c-7.5 14.006-14.97 27.64-22.32 41.336-12.21 22.77-24.28 45.623-36.7 68.288-.86 1.575-4.03 2.662-6.13 2.673-30.471.167-60.941.101-91.411.11-69.095.019-138.191.048-207.657.19-8.944.117-17.517.117-27.014.117 5.285-11.292 9.986-21.338 14.689-31.382 14.668-31.33 29.336-62.66 44.013-93.986.775-1.655 2.014-3.19 2.393-4.92 1.803-8.236 7.267-9.141 14.751-9.125C628.677.889 736.4.816 844.12.816h6.31c-4.99 9.337-9.49 17.767-14.09 26.542zm-379.321 101.59l-1.974 4.933h6.901c101.35 0 202.699-.043 304.044.131 4.95.009 7.43-1.751 9.59-5.824 19.34-36.38 38.83-72.681 58.27-109.011 2.07-3.873 4.08-7.78 6.71-12.804h-7.09c-103.847-.001-207.696.042-311.545-.125-5.634-.01-8.223 1.58-10.675 6.922-17.67 38.494-35.862 76.749-54.231 115.778z" fill="#311422"/><path d="M323.798 412.936a189192.29 189192.29 0 0050.576-107.752c12.769-27.229 25.6-54.43 38.19-81.742 1.817-3.942 4.072-5.194 8.341-5.189 99.207.118 198.414.092 297.621.092h7.101c-3.018 6.234-5.502 11.553-8.145 16.792-11.895 23.581-23.836 47.138-35.751 70.709-.374.74-.69 1.518-.94 2.308-1.479 4.675-4.265 6.512-9.536 6.47-33.845-.266-67.693-.077-101.54-.214-4.005-.016-6.167 1.074-7.981 4.908-15.773 33.35-31.814 66.575-47.771 99.839-18.317 38.185-36.645 76.366-54.935 114.564-5.881 12.281-11.853 24.525-17.381 36.964-1.971 4.433-4.421 6.084-9.375 6.069-59.357-.174-118.715-.112-178.073-.112h-7.165a601118.591 601118.591 0 0176.764-163.706z" fill="#C5007A"/><path d="M457.19 128.598c18.198-38.68 36.39-76.935 54.06-115.428 2.452-5.342 5.041-6.931 10.675-6.922 103.849.167 207.698.124 311.545.125h7.09c-2.63 5.024-4.64 8.93-6.71 12.804-19.44 36.33-38.93 72.632-58.27 109.011-2.16 4.073-4.64 5.833-9.59 5.824-101.345-.174-202.694-.131-304.044-.131h-6.901c.839-2.096 1.407-3.515 2.145-5.283z" fill="#C4007A"/></svg>