<svg width="2659" height="1681" viewBox="0 0 2659 1681" fill="none" xmlns="http://www.w3.org/2000/svg"><path d="M.866 1189.71c-.225-3.64-.647-7.29-.647-10.93C.19 790.188.193 401.601.194 13.014V1.321c2.971-.317 5.5-.774 8.035-.819C14.56.391 20.893.468 27.225.468c873.154 0 1746.305 0 2619.465.01 3.32 0 6.65.167 9.95 1.558-.24 5.272-.61 9.243-.61 13.214-.03 249.875-.03 499.75-.03 749.627 0 136.932.02 273.863-.08 410.793 0 4.9-1.15 9.8-1.78 14.61-.01-.09.17-.03-.51-.07-1.6.78-2.52 1.6-3.86 2.94-1.55 1.21-2.67 1.95-3.84 2.59-125.48 68.26-255.38 126.64-389.92 174.74-136.39 48.76-275.77 86.42-418.11 113.04-83.84 15.68-168.26 27.31-253.23 35.1-64.06 5.88-128.23 9.99-192.53 10.92-51.95.76-103.95-.08-155.91-1.07-60.98-1.15-121.76-5.87-182.45-11.87-64.656-6.4-128.968-15.17-193.016-26.07-100.89-17.18-200.449-40.12-298.728-68.59-179.459-52.01-351.783-121.69-516.936-209.09-14.708-7.78-29.488-15.43-44.234-23.14zM1276.09 976.088s.59.601.4 2.013c-6.69 13.255-13.38 26.509-20.53 40.699h194.15c9.99-24.555 19.88-48.858 29.83-73.307h216.67c10.3 24.71 20.5 49.17 30.52 73.227h343.67V772.328c4.17 4.425 6.63 7.011 9.07 9.619 71.88 76.975 143.8 153.923 215.57 231.003 4.17 4.47 8.32 6.6 14.63 6.57 53.67-.26 107.33-.14 161-.17 2.92 0 5.83-.3 9.01-.48V569.818c-13.21-2.07-171.08-1.445-178.46.786v163.72c0 13.666.02 27.333 0 40.999-.03 13.416-.1 26.832-.15 40.249-1.03.523-2.06 1.047-3.08 1.57-1.21-2.013-2.11-4.314-3.67-5.996-73.06-78.614-146.22-157.143-219.21-235.821-4.15-4.479-8.16-6.76-14.52-6.729-53.33.266-106.67.144-160 .174-2.9.002-5.8.324-9.53.546v376.999c-3.24-2.245-4.86-4.948-6.3-7.747-61.86-120.24-123.76-240.455-185.37-360.821-3.57-6.984-7.57-9.236-15.32-9.193-61.99.347-123.99.339-185.99.015-7.98-.042-12.32 2.164-16.09 9.533-47.6 93.121-95.58 186.05-143.47 279.02-1.63 3.149-3.42 6.209-5.35 9.698-.84-1.232-1.37-1.665-1.42-2.143-2.95-32.533-18.64-57.842-44.12-77.492-19.48-15.02-41.52-25.255-64.65-33.075-48.76-16.478-99.33-25.096-149.82-34.004-21.96-3.874-43.96-7.607-65.74-12.318-7.959-1.722-15.968-5.104-22.874-9.45-15.99-10.062-16.598-25.521-2.274-38.009 7.468-6.51 16.311-10.401 25.928-12.213 23.2-4.369 46.43-4.194 69.44 1.107 27.55 6.348 46.38 22.392 54.05 50.282.26.936.8 1.793 1.35 3.013h176.89c.55-1.004.89-1.33.84-1.585-10.26-55.396-38.6-96.308-92.95-116.69-37.23-13.964-76.06-19.724-115.4-21.677-49.3-2.447-98.61-1.959-147.612 5.428-36.916 5.564-72.063 16.161-103.914 36.26-1.523.961-3.507 1.19-5.293 1.747 0 0-.007-.006-.301-1.579l9.922-36.391H347.417L216.514 1018.6h517.744l29.763-102.393H436.613l25.579-88.731h295.396l26.758-91.836H488.967l20.716-71.454h290.718c-1.359 8.996-3.523 17.491-3.778 26.044-.966 32.363 13.077 57.782 37.598 78.008 23.041 19.004 50.062 30.208 78.017 39.425 44.104 14.542 89.782 22.076 135.312 30.423 21.54 3.949 42.72 10.005 63.92 15.641 9.42 2.504 17.67 7.686 24.7 14.618 15.52 15.304 15.17 34.177-1.09 48.871-9.33 8.435-20.35 13.765-32.51 16.822-20.64 5.192-41.56 5.338-62.55 3.101-13.31-1.419-26.17-4.745-38.37-10.453-22.442-10.497-37.334-27.385-43.931-51.398-1.133-4.124-2.331-8.231-3.526-12.442H773.092c1.49 8.647 2.217 16.622 4.278 24.236 16.001 59.125 52.934 98.931 111.018 118.628 39.15 13.27 79.874 17.9 120.872 19.89 38.95 1.89 77.96 2.1 116.86-1.7 33.93-3.31 67.19-9.58 99.16-21.93 17.8-6.879 34.03-16.595 50.81-25.882zM1221.41 1239v105.49h68.98c.63-1.26 1.16-1.84 1.17-2.42.14-6.66.17-13.32.3-19.98.47-22.57-3.3-15.01 14.59-29.31 6.93-5.54 14.15-10.75 21.87-16.58 2.81 3.78 5.02 6.61 7.08 9.56 12.2 17.49 24.48 34.93 36.45 52.58 3.32 4.89 7.1 7.05 13.15 6.97 23.33-.3 46.66-.1 69.98-.17 2.13-.01 4.25-.63 7.87-1.2-29.07-35.08-57.24-69.06-86.04-103.8 27.42-21.02 53.91-41.31 80.39-61.61-2.35-2.03-3.87-2.27-5.38-2.27-26.33-.02-52.66.14-78.98-.14-5.59-.06-9.39 2.31-13.27 5.67-19.65 17.01-39.38 33.93-59.11 50.84-2.16 1.85-4.54 3.43-8.74 6.57v-62.38h-70.31V1239zm-129.93 74.43l-69.87-136.86h-77.29c-28.355 55.5-56.734 111.04-84.835 166.04 1.271 1.47 1.483 1.93 1.699 1.93 21.624.22 43.249.4 64.873.61 3.593.04 5.326-1.96 6.482-5.08 1.85-4.99 4.252-9.8 5.814-14.88 1.868-6.07 5.488-8.09 11.784-7.96 17.312.37 34.639.07 51.963.17 6.29.04 14.13-1.72 18.45 1.33 4.7 3.32 6.11 11.28 8.95 17.22.29.6.58 1.22.74 1.86 1.43 5.8 5.07 7.61 11.01 7.51 19.31-.33 38.63-.1 57.95-.17 2.17-.01 4.33-.63 7.75-1.17-5.26-10.36-10.04-19.78-15.47-30.55zm560.51-46.56v-46.02c-23.96.34-46.7-.53-69.79.57 0 22.33-1.19 43.66.37 64.79 1.33 17.94 10.63 32.59 25.93 43.07 10.05 6.89 20.83 12.12 32.74 14.18 30.35 5.26 60.88 6.48 91.45 1.89 16.77-2.51 32.08-8.7 45.29-19.55 12.67-10.41 20.92-23.69 21.87-40.06 1.15-19.92.74-39.92.94-59.88.01-1.25-.59-2.5-1.04-4.28h-69.68v10.38c-.01 15.65.14 31.3-.06 46.95-.17 13.45-6.2 22.05-18.87 26.4-13.31 4.58-26.91 4.6-40.21 0-12.55-4.34-18.47-13.06-18.9-26.5-.11-3.33-.03-6.66-.04-11.94zm126.93-107.31h-47.72v39.97h69.08v-39.97h-21.36zm-196.66 38.71c1.82.58 3.63 1.66 5.44 1.67 19.58.12 39.15.09 58.73.01 1.53 0 3.06-.65 5.24-1.15-.13-13.13.46-25.85-.31-38.56h-69.64c0 12.51 0 24.36.54 38.03z" fill="#205DA6"/><path d="M.703 1190.65c14.91 6.77 29.689 14.42 44.397 22.2 165.152 87.4 337.477 157.08 516.936 209.09 98.279 28.47 197.838 51.41 298.728 68.59 64.048 10.9 128.36 19.67 193.016 26.07 60.69 6 121.47 10.72 182.45 11.87 51.96.99 103.96 1.83 155.91 1.07 64.3-.93 128.47-5.04 192.53-10.92 84.97-7.79 169.39-19.42 253.23-35.1 142.34-26.62 281.72-64.28 418.11-113.04 134.54-48.1 264.44-106.48 389.92-174.74 1.17-.64 2.29-1.38 4.47-2.66 1.99-1.34 2.95-2.09 3.91-2.83 0 0-.18-.06.42.06 1.38-.01 2.16-.13 2.94-.25.25 3.31.71 6.62.71 9.93.05 49.67-.19 99.33.26 148.99.07 8.05-2.88 11.83-9.57 15.22-107.38 54.49-217.54 102.55-330.78 143.53-97.5 35.29-196.62 65.22-297.33 89.85-69.24 16.94-138.94 31.8-209.41 42.67-49.68 7.66-99.43 15.05-149.32 21.11-39.65 4.81-79.55 7.67-119.38 10.93-92.42 7.57-185.04 9.52-277.69 7.27-48.93-1.19-97.84-4.18-146.71-7.22-34.22-2.12-68.43-5.03-102.51-8.8-39.374-4.37-78.635-9.79-117.876-15.25-60.051-8.34-119.623-19.47-178.901-32.14-120.338-25.73-238.545-59.07-354.619-99.94-91.199-32.11-180.683-68.43-268.018-109.95-29.79-14.16-59.23-29.06-88.917-43.44-4.97-2.4-7.553-5.1-7.52-11.24.284-52.33.18-104.66.206-157 0-.99.16-1.99.408-3.93z" fill="#F1CA14"/><path d="M2657.91 1189.14c-1.02 1.04-1.8 1.16-3.17 1.26.03-4.93 1.18-9.83 1.18-14.73.1-136.93.08-273.861.08-410.793 0-249.876 0-499.752.03-749.627 0-3.971.37-7.942 1.09-12.557.78 3.313 1.27 7.27 1.27 11.227.04 387.773.03 775.546.02 1163.32 0 3.66-.17 7.32-.5 11.9z" fill="#24588F"/><path d="M846.018 606.014c1.769-.57 3.753-.799 5.276-1.76 31.851-20.099 66.998-30.696 103.914-36.26 49.002-7.387 98.312-7.875 147.612-5.428 39.34 1.953 78.17 7.713 115.4 21.677 54.35 20.382 82.69 61.294 92.95 116.69.05.255-.29.581-.84 1.585h-176.89c-.55-1.22-1.09-2.077-1.35-3.013-7.67-27.89-26.5-43.934-54.05-50.282-23.01-5.301-46.24-5.476-69.44-1.107-9.617 1.812-18.46 5.703-25.928 12.213-14.324 12.488-13.716 27.947 2.274 38.009 6.906 4.346 14.915 7.728 22.874 9.45 21.78 4.711 43.78 8.444 65.74 12.318 50.49 8.908 101.06 17.526 149.82 34.004 23.13 7.82 45.17 18.055 64.65 33.075 25.48 19.65 41.17 44.959 44.12 77.492.05.478.58.911 1.42 2.143 1.93-3.489 3.72-6.549 5.35-9.698 47.89-92.97 95.87-185.899 143.47-279.02 3.77-7.369 8.11-9.575 16.09-9.533 62 .324 124 .332 185.99-.015 7.75-.043 11.75 2.209 15.32 9.193 61.61 120.366 123.51 240.581 185.37 360.821 1.44 2.799 3.06 5.502 6.3 7.747V569.316c3.73-.222 6.63-.544 9.53-.546 53.33-.03 106.67.092 160-.173 6.36-.032 10.37 2.249 14.52 6.728 72.99 78.678 146.15 157.207 219.21 235.821 1.56 1.682 2.46 3.983 3.67 5.996 1.02-.523 2.05-1.047 3.08-1.57.05-13.417.12-26.833.15-40.249.02-13.666 0-27.333 0-40.999v-163.72c7.38-2.231 165.25-2.856 178.46-.786v449.052c-3.18.18-6.09.48-9.01.48-53.67.03-107.33-.09-161 .17-6.31.03-10.46-2.1-14.63-6.57-71.77-77.08-143.69-154.028-215.57-231.003-2.44-2.608-4.9-5.194-9.07-9.619v246.392h-343.67c-10.02-24.057-20.22-48.517-30.52-73.227h-216.67c-9.95 24.449-19.84 48.752-29.83 73.307h-194.15c7.15-14.19 13.84-27.444 21.05-41.754.46-1.57.4-2.085.35-2.599-.63.347-1.25.694-1.87 1.042-16.18 9.886-32.41 19.602-50.21 26.481-31.97 12.35-65.23 18.62-99.16 21.93-38.9 3.8-77.91 3.59-116.86 1.7-40.998-1.99-81.722-6.62-120.872-19.89-58.084-19.697-95.017-59.503-111.018-118.628-2.061-7.614-2.788-15.589-4.278-24.236h181.101c1.195 4.211 2.393 8.318 3.526 12.442 6.597 24.013 21.489 40.901 43.931 51.398 12.2 5.708 25.06 9.034 38.37 10.453 20.99 2.237 41.91 2.091 62.55-3.101 12.16-3.057 23.18-8.387 32.51-16.822 16.26-14.694 16.61-33.567 1.09-48.871-7.03-6.932-15.28-12.114-24.7-14.618-21.2-5.636-42.38-11.692-63.92-15.641-45.53-8.347-91.208-15.881-135.312-30.423-27.955-9.217-54.976-20.421-78.017-39.425-24.521-20.226-38.564-45.645-37.598-78.008.255-8.553 2.419-17.048 3.778-26.044H509.683l-20.716 71.454h295.379l-26.758 91.836H462.192l-25.579 88.731h327.408L734.258 1018.6H216.514l130.903-450.569h508.205c-3.377 12.384-6.649 24.388-10.179 37.276-.101 1.251.056 1.618.214 1.984l.361-1.277zm805.802 241.78c1.27-.988 3.66-2.077 3.58-2.944-.19-2.22-1.45-4.357-2.36-6.5-19.89-47.246-39.78-94.492-59.7-141.727-1.23-2.925-2.67-5.764-4.85-10.444-22.69 54.677-44.67 107.641-67.07 161.626 44.02 0 86.32 0 130.4-.011z" fill="#FEFEFE"/><path d="M1221.41 1238v-61.18h70.31v62.38c4.2-3.14 6.58-4.72 8.74-6.57 19.73-16.91 39.46-33.83 59.11-50.84 3.88-3.36 7.68-5.73 13.27-5.67 26.32.28 52.65.12 78.98.14 1.51 0 3.03.24 5.38 2.27-26.48 20.3-52.97 40.59-80.39 61.61 28.8 34.74 56.97 68.72 86.04 103.8-3.62.57-5.74 1.19-7.87 1.2-23.32.07-46.65-.13-69.98.17-6.05.08-9.83-2.08-13.15-6.97-11.97-17.65-24.25-35.09-36.45-52.58-2.06-2.95-4.27-5.78-7.08-9.56-7.72 5.83-14.94 11.04-21.87 16.58-17.89 14.3-14.12 6.74-14.59 29.31-.13 6.66-.16 13.32-.3 19.98-.01.58-.54 1.16-1.17 2.42h-68.98V1238z" fill="#EFC916"/><path d="M1091.8 1314.1c5.11 10.1 9.89 19.52 15.15 29.88-3.42.54-5.58 1.16-7.75 1.17-19.32.07-38.64-.16-57.95.17-5.94.1-9.58-1.71-11.01-7.51-.16-.64-.45-1.26-.74-1.86-2.84-5.94-4.25-13.9-8.95-17.22-4.32-3.05-12.16-1.29-18.45-1.33-17.324-.1-34.651.2-51.963-.17-6.296-.13-9.916 1.89-11.784 7.96-1.562 5.08-3.964 9.89-5.814 14.88-1.156 3.12-2.889 5.12-6.482 5.08-21.624-.21-43.249-.39-64.873-.61-.216 0-.428-.46-1.699-1.93 28.101-55 56.48-110.54 84.835-166.04h77.29c23.27 45.58 46.57 91.22 70.19 137.53zm-103.002-77.89c-1.892-4.44-3.784-8.87-6.62-15.53-9.153 20.89-16.849 39.64-24.616 59.25h49.368c-6.15-14.87-11.826-28.61-18.132-43.72z" fill="#EEC917"/><path d="M1652 1267.85c0 4.3-.08 7.63.03 10.96.43 13.44 6.35 22.16 18.9 26.5 13.3 4.6 26.9 4.58 40.21 0 12.67-4.35 18.7-12.95 18.87-26.4.2-15.65.05-31.3.06-46.95v-10.38h69.68c.45 1.78 1.05 3.03 1.04 4.28-.2 19.96.21 39.96-.94 59.88-.95 16.37-9.2 29.65-21.87 40.06-13.21 10.85-28.52 17.04-45.29 19.55-30.57 4.59-61.1 3.37-91.45-1.89-11.91-2.06-22.69-7.29-32.74-14.18-15.3-10.48-24.6-25.13-25.93-43.07-1.56-21.13-.37-42.46-.37-64.79 23.09-1.1 45.83-.23 69.79-.57 0 16.25 0 31.13.01 47z" fill="#EFCA17"/><path d="M1779.91 1159.56h20.37v39.97h-69.08v-39.97h48.71zm-197.92 37.8c-.27-12.76-.27-24.61-.27-37.12h69.64c.77 12.71.18 25.43.31 38.56-2.18.5-3.71 1.15-5.24 1.15-19.58.08-39.15.11-58.73-.01-1.81-.01-3.62-1.09-5.71-2.58z" fill="#EDC91B"/><path d="M2653.63 1190.21c-.28.78-1.24 1.53-2.82 2.35.29-.75 1.22-1.57 2.82-2.35z" fill="#24588F"/><path d="M1650.93 847.799c-43.19.006-85.49.006-129.51.006 22.4-53.985 44.38-106.949 67.07-161.626 2.18 4.68 3.62 7.519 4.85 10.444 19.92 47.235 39.81 94.481 59.7 141.727.91 2.143 2.17 4.28 2.36 6.5.08.867-2.31 1.956-4.47 2.949z" fill="#235FA5"/><path d="M846.009 606.007c-.112.433-.232.858-.352 1.284-.158-.366-.315-.733-.067-1.197.404-.099.411-.093.419-.087zm429.781 369.781c.32-.647.94-.994 1.57-1.341.05.514.11 1.029-.25 1.893-.43.349-1.02-.252-1.32-.552z" fill="#205DA6"/><path d="M989.111 1236.9c5.993 14.42 11.669 28.16 17.819 43.03h-49.368c7.767-19.61 15.463-38.36 24.616-59.25 2.836 6.66 4.728 11.09 6.933 16.22z" fill="#275F99"/></svg>