<svg width="311" height="134" viewBox="0 0 311 134" fill="none" xmlns="http://www.w3.org/2000/svg"><path d="M94.84 87.54l-7.78 7.09v29.71l-9.41 8.92H55.59l-8.06-4.72-8 4.72H17.41L8 124.38V94.63L.22 87.54h20v36.37H41.7V87.54h11.67v36.37h21.52V87.54h19.95zm2.92 37.07l9 8.61h39.15v-8.61h-36.74v-10h36.14v-8.32h-36.14v-9.75H146v-9h-38.37l-9.86 9-.01 28.07zm58.31-10.13h34.84v10.13H156.1v8.65h35.67l10.15-10v-17h-35.27v-9.72h35.27v-9h-35.41l-10.41 9.85-.03 17.09zm53.45-17.91H228v36.69h12.36V96.7h19v-9.16h-49.81l-.03 9.03zm100.73 36.69h-11.84l-2.6-9.58h-24.63l-2.76 9.58H256.3l13.88-45.68h33.05l-5.48 5.94 12.5 39.74zm-16.84-18.13l-4.82-18.51h-10.95l-4.79 18.51h20.56z" fill="#000"/><path d="M245.9 35.35L207 74.23A61.915 61.915 0 00155.54 46h-1.09A61.908 61.908 0 00103 74.23L64.09 35.35l1.21-1.16s27.38 26.44 46.24 15.17c11.68-6.94 5.92-16.05 4.3-20.68l1.79-1.1s7.05 11 19.46 9.09c12.41-1.91 15.83-12.85 16.4-35.93h3c.54 23 4 34.07 16.42 35.88 12.42 1.81 19.47-9.09 19.47-9.09l1.8 1.09c-1.63 4.64-7.38 13.75 4.29 20.68 18.92 11.27 46.25-15.17 46.25-15.17l1.18 1.22z" fill="#2CCBFF"/></svg>